<svg width="20" height="20" viewBox="0 0 20 20" fill="none" xmlns="http://www.w3.org/2000/svg">
<path fill-rule="evenodd" clip-rule="evenodd" d="M8.25 8C7.15 8 6.25 7.65 5.55 6.95C4.85 6.25 4.5 5.35 4.5 4.25C4.5 3.15 4.85 2.25 5.55 1.55C6.25 0.85 7.15 0.5 8.25 0.5C9.35 0.5 10.25 0.85 10.95 1.55C11.65 2.25 12 3.15 12 4.25C12 5.35 11.65 6.25 10.95 6.95C10.25 7.65 9.35 8 8.25 8ZM0.25 16.025V13.675C0.25 13.0417 0.408333 12.5 0.725 12.05C1.04167 11.6 1.45 11.2583 1.95 11.025C3.06667 10.525 4.1375 10.15 5.1625 9.9C6.1875 9.65 7.21667 9.525 8.25 9.525C9.28333 9.525 10.3083 9.65417 11.325 9.9125C12.3417 10.1708 13.4083 10.5417 14.525 11.025C14.6504 11.0816 14.7699 11.1446 14.8835 11.214C14.2722 11.3873 13.7085 11.674 13.2166 12.0499C12.4228 11.7067 11.6839 11.4609 11 11.3125C10.1167 11.1208 9.2 11.025 8.25 11.025C7.3 11.025 6.375 11.1208 5.475 11.3125C4.575 11.5042 3.6 11.8583 2.55 12.375C2.31667 12.4917 2.125 12.6708 1.975 12.9125C1.825 13.1542 1.75 13.4083 1.75 13.675V14.525H11.4789C11.3302 14.9985 11.25 15.5024 11.25 16.025H0.25ZM8.25 6.5C8.9 6.5 9.4375 6.2875 9.8625 5.8625C10.2875 5.4375 10.5 4.9 10.5 4.25C10.5 3.6 10.2875 3.0625 9.8625 2.6375C9.4375 2.2125 8.9 2 8.25 2C7.6 2 7.0625 2.2125 6.6375 2.6375C6.2125 3.0625 6 3.6 6 4.25C6 4.9 6.2125 5.4375 6.6375 5.8625C7.0625 6.2875 7.6 6.5 8.25 6.5ZM13.2448 14.0755L14.3055 13.0148L16.25 14.9594L18.1945 13.0148L19.2552 14.0755L17.3107 16.02L19.2552 17.9646L18.1945 19.0252L16.25 17.0807L14.3055 19.0252L13.2448 17.9646L15.1893 16.02L13.2448 14.0755Z" fill="#F06460"/>
</svg>
