<svg width="21" height="22" viewBox="0 0 21 22" fill="none" xmlns="http://www.w3.org/2000/svg">
<path fill-rule="evenodd" clip-rule="evenodd" d="M6.80664 6.32581L9.98862 9.50779L17.9436 1.55285L16.8829 0.492188L9.98862 7.38647L7.8673 5.26515L6.80664 6.32581ZM4.9748 21.475C5.3248 21.825 5.7498 22 6.2498 22C6.7498 22 7.1748 21.825 7.5248 21.475C7.8748 21.125 8.0498 20.7 8.0498 20.2C8.0498 19.7 7.8748 19.275 7.5248 18.925C7.1748 18.575 6.7498 18.4 6.2498 18.4C5.7498 18.4 5.3248 18.575 4.9748 18.925C4.6248 19.275 4.4498 19.7 4.4498 20.2C4.4498 20.7 4.6248 21.125 4.9748 21.475ZM15.0748 21.475C15.4248 21.825 15.8498 22 16.3498 22C16.8498 22 17.2748 21.825 17.6248 21.475C17.9748 21.125 18.1498 20.7 18.1498 20.2C18.1498 19.7 17.9748 19.275 17.6248 18.925C17.2748 18.575 16.8498 18.4 16.3498 18.4C15.8498 18.4 15.4248 18.575 15.0748 18.925C14.7248 19.275 14.5498 19.7 14.5498 20.2C14.5498 20.7 14.7248 21.125 15.0748 21.475ZM4.71231 15.975C5.0373 16.5417 5.5498 16.825 6.2498 16.825H18.1498V15.325H5.7998L7.3498 12.6H14.8498C15.1998 12.6 15.504 12.525 15.7623 12.375C16.0206 12.225 16.2248 12.0083 16.3748 11.725L20.1998 4.8L18.8998 4.1L14.9998 11.1H7.6998L3.4498 2H0.549805V3.5H2.4998L6.2498 11.475L4.7248 14.25C4.39147 14.8333 4.38731 15.4083 4.71231 15.975Z" fill="#098CD1"/>
</svg>
