<svg width="23" height="18" viewBox="0 0 23 18" fill="none" xmlns="http://www.w3.org/2000/svg">
<path fill-rule="evenodd" clip-rule="evenodd" d="M11.9128 13.525H15.325C15.325 14.3417 15.6125 15.0375 16.1875 15.6125C16.7625 16.1875 17.4583 16.475 18.275 16.475C19.0917 16.475 19.7875 16.1875 20.3625 15.6125C20.9375 15.0375 21.225 14.3417 21.225 13.525H23V9.2L19.6 4.675H16.975V0.5H2.5C2.1 0.5 1.75 0.65 1.45 0.95C1.15 1.25 1 1.6 1 2V9.18221C1.40215 8.57736 1.91113 8.04966 2.5 7.62605V2H15.475V12.025H11.9815C11.9937 12.1817 12 12.3401 12 12.5C12 12.8494 11.9701 13.1919 11.9128 13.525ZM19.3 14.55C19.0167 14.8333 18.675 14.975 18.275 14.975C17.875 14.975 17.5333 14.8333 17.25 14.55C16.9667 14.2667 16.825 13.925 16.825 13.525C16.825 13.125 16.9667 12.7833 17.25 12.5C17.5333 12.2167 17.875 12.075 18.275 12.075C18.675 12.075 19.0167 12.2167 19.3 12.5C19.5833 12.7833 19.725 13.125 19.725 13.525C19.725 13.925 19.5833 14.2667 19.3 14.55ZM21.625 9.875H16.975V6.175H18.85L21.625 9.875ZM6 8.75C3.92893 8.75 2.25 10.4289 2.25 12.5C2.25 14.5711 3.92893 16.25 6 16.25C8.07107 16.25 9.75 14.5711 9.75 12.5C9.75 10.4289 8.07107 8.75 6 8.75ZM0.75 12.5C0.75 9.6005 3.10051 7.25 6 7.25C8.8995 7.25 11.25 9.6005 11.25 12.5C11.25 15.3995 8.8995 17.75 6 17.75C3.10051 17.75 0.75 15.3995 0.75 12.5ZM6.75 10.5C6.75 10.0858 6.41421 9.75 6 9.75C5.58579 9.75 5.25 10.0858 5.25 10.5V13C5.25 13.2278 5.35357 13.4433 5.53148 13.5857L6.78148 14.5857C7.10493 14.8444 7.57689 14.792 7.83565 14.4685C8.09441 14.1451 8.04197 13.6731 7.71852 13.4143L6.75 12.6395V10.5Z" fill="#F38E03"/>
</svg>
