<svg width="673" height="48" viewBox="0 0 673 48" fill="none" xmlns="http://www.w3.org/2000/svg">
<path d="M0.5 9C0.5 4.30558 4.30558 0.5 9 0.5H664C668.694 0.5 672.5 4.30558 672.5 9V39C672.5 43.6944 668.694 47.5 664 47.5H9C4.30558 47.5 0.5 43.6944 0.5 39V9Z" fill="white" fill-opacity="0.8" stroke="#E1E3E4"/>
<path d="M60.0078 26.9609C60.0078 27.638 59.8385 28.2161 59.5 28.6953C59.1667 29.1693 58.6979 29.5312 58.0938 29.7812C57.4896 30.0312 56.7786 30.1562 55.9609 30.1562C55.5286 30.1562 55.1198 30.1354 54.7344 30.0938C54.349 30.0521 53.9948 29.9922 53.6719 29.9141C53.349 29.8359 53.0651 29.7396 52.8203 29.625V28.3516C53.2109 28.513 53.6875 28.6641 54.25 28.8047C54.8125 28.9401 55.401 29.0078 56.0156 29.0078C56.5885 29.0078 57.0729 28.9323 57.4688 28.7812C57.8646 28.625 58.1641 28.4036 58.3672 28.1172C58.5755 27.8255 58.6797 27.4766 58.6797 27.0703C58.6797 26.6797 58.5938 26.3542 58.4219 26.0938C58.25 25.8281 57.9635 25.5885 57.5625 25.375C57.1667 25.1562 56.625 24.9245 55.9375 24.6797C55.4531 24.5078 55.026 24.3203 54.6562 24.1172C54.2865 23.9089 53.9766 23.6745 53.7266 23.4141C53.4766 23.1536 53.2865 22.8516 53.1562 22.5078C53.0312 22.1641 52.9688 21.7708 52.9688 21.3281C52.9688 20.7188 53.1224 20.1979 53.4297 19.7656C53.7422 19.3281 54.1719 18.9948 54.7188 18.7656C55.2708 18.5312 55.9036 18.4141 56.6172 18.4141C57.2266 18.4141 57.7891 18.4714 58.3047 18.5859C58.8255 18.7005 59.3021 18.8542 59.7344 19.0469L59.3203 20.1875C58.9089 20.0156 58.4714 19.8724 58.0078 19.7578C57.5495 19.6432 57.0755 19.5859 56.5859 19.5859C56.0964 19.5859 55.6823 19.6589 55.3438 19.8047C55.0104 19.9453 54.7552 20.1458 54.5781 20.4062C54.401 20.6667 54.3125 20.9766 54.3125 21.3359C54.3125 21.737 54.3958 22.0703 54.5625 22.3359C54.7344 22.6016 55.0052 22.8385 55.375 23.0469C55.75 23.25 56.2448 23.4635 56.8594 23.6875C57.5312 23.9323 58.1016 24.1927 58.5703 24.4688C59.0391 24.7396 59.3958 25.0729 59.6406 25.4688C59.8854 25.8594 60.0078 26.3568 60.0078 26.9609ZM65.5453 21.2812C66.2745 21.2812 66.8995 21.4427 67.4203 21.7656C67.9411 22.0885 68.3396 22.5417 68.6156 23.125C68.8917 23.7031 69.0297 24.3802 69.0297 25.1562V25.9609H63.1156C63.1313 26.9661 63.3813 27.7318 63.8656 28.2578C64.35 28.7839 65.0323 29.0469 65.9125 29.0469C66.4542 29.0469 66.9333 28.9974 67.35 28.8984C67.7667 28.7995 68.199 28.6536 68.6469 28.4609V29.6016C68.2146 29.7943 67.7849 29.9349 67.3578 30.0234C66.9359 30.112 66.4359 30.1562 65.8578 30.1562C65.0349 30.1562 64.3161 29.9896 63.7016 29.6562C63.0922 29.3177 62.6182 28.8229 62.2797 28.1719C61.9411 27.5208 61.7719 26.724 61.7719 25.7812C61.7719 24.8594 61.9255 24.0625 62.2328 23.3906C62.5453 22.7135 62.9828 22.1927 63.5453 21.8281C64.113 21.4635 64.7797 21.2812 65.5453 21.2812ZM65.5297 22.3438C64.837 22.3438 64.2849 22.5703 63.8734 23.0234C63.462 23.4766 63.2172 24.1094 63.1391 24.9219H67.6703C67.6651 24.4115 67.5844 23.9635 67.4281 23.5781C67.2771 23.1875 67.0453 22.8854 66.7328 22.6719C66.4203 22.4531 66.0193 22.3438 65.5297 22.3438ZM74.5359 21.2969C75.5568 21.2969 76.3146 21.526 76.8094 21.9844C77.3042 22.4427 77.5516 23.1745 77.5516 24.1797V30H76.6063L76.3563 28.7344H76.2938C76.0542 29.0469 75.8042 29.3099 75.5438 29.5234C75.2833 29.7318 74.9813 29.8906 74.6375 30C74.299 30.1042 73.8823 30.1562 73.3875 30.1562C72.8667 30.1562 72.4031 30.0651 71.9969 29.8828C71.5958 29.7005 71.2781 29.4245 71.0438 29.0547C70.8146 28.6849 70.7 28.2161 70.7 27.6484C70.7 26.7943 71.0385 26.138 71.7156 25.6797C72.3927 25.2214 73.424 24.9714 74.8094 24.9297L76.2859 24.8672V24.3438C76.2859 23.6042 76.1271 23.0859 75.8094 22.7891C75.4917 22.4922 75.0438 22.3438 74.4656 22.3438C74.0177 22.3438 73.5906 22.4089 73.1844 22.5391C72.7781 22.6693 72.3927 22.8229 72.0281 23L71.6297 22.0156C72.0151 21.8177 72.4578 21.6484 72.9578 21.5078C73.4578 21.3672 73.9839 21.2969 74.5359 21.2969ZM76.2703 25.7812L74.9656 25.8359C73.8979 25.8776 73.1453 26.0521 72.7078 26.3594C72.2703 26.6667 72.0516 27.1016 72.0516 27.6641C72.0516 28.1536 72.2 28.5156 72.4969 28.75C72.7938 28.9844 73.187 29.1016 73.6766 29.1016C74.437 29.1016 75.0594 28.8906 75.5438 28.4688C76.0281 28.0469 76.2703 27.4141 76.2703 26.5703V25.7812ZM84.2141 21.2812C84.3859 21.2812 84.5656 21.2917 84.7531 21.3125C84.9406 21.3281 85.1073 21.3516 85.2531 21.3828L85.0891 22.5859C84.9484 22.5495 84.7922 22.5208 84.6203 22.5C84.4484 22.4792 84.287 22.4688 84.1359 22.4688C83.7922 22.4688 83.4667 22.5391 83.1594 22.6797C82.8573 22.8151 82.5917 23.013 82.3625 23.2734C82.1333 23.5286 81.9536 23.8385 81.8234 24.2031C81.6932 24.5625 81.6281 24.9635 81.6281 25.4062V30H80.3234V21.4375H81.4016L81.5422 23.0156H81.5969C81.774 22.6979 81.9875 22.4089 82.2375 22.1484C82.4875 21.8828 82.7766 21.6719 83.1047 21.5156C83.438 21.3594 83.8078 21.2812 84.2141 21.2812ZM90.4 30.1562C89.6292 30.1562 88.9495 29.9974 88.3609 29.6797C87.7724 29.362 87.3141 28.8776 86.9859 28.2266C86.6578 27.5755 86.4938 26.7552 86.4938 25.7656C86.4938 24.7292 86.6656 23.8828 87.0094 23.2266C87.3583 22.5651 87.8375 22.0755 88.4469 21.7578C89.0563 21.4401 89.749 21.2812 90.525 21.2812C90.9521 21.2812 91.3635 21.3255 91.7594 21.4141C92.1604 21.4974 92.4885 21.6042 92.7438 21.7344L92.3531 22.8203C92.0927 22.7161 91.7906 22.6224 91.4469 22.5391C91.1083 22.4557 90.7906 22.4141 90.4938 22.4141C89.9 22.4141 89.4052 22.5417 89.0094 22.7969C88.6188 23.0521 88.3245 23.4271 88.1266 23.9219C87.9339 24.4167 87.8375 25.026 87.8375 25.75C87.8375 26.4427 87.9313 27.0339 88.1188 27.5234C88.3115 28.013 88.5953 28.388 88.9703 28.6484C89.3505 28.9036 89.8245 29.0312 90.3922 29.0312C90.8453 29.0312 91.2542 28.9844 91.6188 28.8906C91.9833 28.7917 92.3141 28.6771 92.6109 28.5469V29.7031C92.3245 29.849 92.0042 29.9609 91.65 30.0391C91.301 30.1172 90.8844 30.1562 90.4 30.1562ZM96.0391 17.8438V21.4766C96.0391 21.6849 96.0339 21.8958 96.0234 22.1094C96.013 22.3177 95.9948 22.5104 95.9688 22.6875H96.0547C96.2318 22.3854 96.4557 22.1328 96.7266 21.9297C97.0026 21.7214 97.3151 21.5651 97.6641 21.4609C98.013 21.3516 98.3828 21.2969 98.7734 21.2969C99.4609 21.2969 100.034 21.4062 100.492 21.625C100.956 21.8438 101.302 22.1823 101.531 22.6406C101.766 23.099 101.883 23.6927 101.883 24.4219V30H100.602V24.5078C100.602 23.7943 100.438 23.2604 100.109 22.9062C99.7865 22.5521 99.2891 22.375 98.6172 22.375C97.9818 22.375 97.474 22.4974 97.0938 22.7422C96.7188 22.9818 96.4479 23.3359 96.2812 23.8047C96.1198 24.2734 96.0391 24.8464 96.0391 25.5234V30H94.7422V17.8438H96.0391Z" fill="#B1B2B5"/>
<path d="M23.0833 30.1667C26.9954 30.1667 30.1667 26.9954 30.1667 23.0833C30.1667 19.1713 26.9954 16 23.0833 16C19.1713 16 16 19.1713 16 23.0833C16 26.9954 19.1713 30.1667 23.0833 30.1667Z" stroke="#5D5D5A" stroke-width="1.2" stroke-linecap="round" stroke-linejoin="round"/>
<path d="M31.9375 31.9375L28.0859 28.0859" stroke="#5D5D5A" stroke-width="1.2" stroke-linecap="round" stroke-linejoin="round"/>
</svg>
