<svg width="120" height="108" viewBox="0 0 120 108" fill="none" xmlns="http://www.w3.org/2000/svg">
<g opacity="0.2">
<path d="M115.811 39.7093C115.769 39.5833 115.727 39.471 115.671 39.3597C115.643 39.3177 115.643 39.262 115.616 39.22L92.6976 4.75C92.6693 4.70801 92.6136 4.67969 92.5853 4.62403C92.5013 4.52637 92.4173 4.44239 92.3196 4.3584C92.2357 4.28809 92.138 4.21875 92.0394 4.16211C91.9417 4.10645 91.8431 4.06446 91.7317 4.03613C91.6058 3.99414 91.4935 3.98047 91.3675 3.96582C91.3118 3.96582 91.2552 3.9375 91.1995 3.9375L28.662 3.93848C28.6064 3.93848 28.5497 3.9668 28.4941 3.9668C28.3681 3.98047 28.2421 4.00879 28.1161 4.03711C28.0038 4.06543 27.9062 4.10742 27.8085 4.16309C27.7108 4.21875 27.6122 4.28906 27.5145 4.35938C27.4169 4.44336 27.3329 4.52735 27.2489 4.625C27.2069 4.66699 27.1649 4.69531 27.1229 4.75098L4.23145 39.2035C4.20313 39.2455 4.20312 39.3011 4.17578 39.3431C4.12011 39.4554 4.07813 39.5668 4.03613 39.6927C3.99414 39.805 3.98047 39.931 3.96582 40.0423C3.96582 40.098 3.9375 40.14 3.9375 40.2103V49.2678C3.9375 54.6156 7.8575 59.0403 12.953 59.9076L12.954 114.118C12.954 115.125 13.7655 115.938 14.7743 115.938H105.074C106.082 115.938 106.895 115.126 106.895 114.118V59.9101C112.005 59.0565 115.91 54.6318 115.91 49.2703V40.2128C115.91 40.1571 115.882 40.1005 115.882 40.0448C115.883 39.9325 115.854 39.8202 115.812 39.7079L115.811 39.7093ZM29.6409 7.57925H90.2059L110.702 38.3943H9.14438L29.6409 7.57925ZM94.2234 42.0343V49.2863C94.2234 53.2483 91.0036 56.468 87.0416 56.468H86.9713C83.0093 56.468 79.7896 53.2483 79.7896 49.2863V42.0343H94.2234ZM76.1639 42.0343V49.2863C76.1639 53.2483 72.9441 56.468 68.9959 56.468H68.9256C64.9773 56.468 61.7576 53.2483 61.7576 49.2863V42.0343H76.1639ZM58.1034 42.0343V49.2863C58.1034 53.2483 54.8836 56.468 50.9354 56.468H50.8651C46.9168 56.468 43.6971 53.2483 43.6971 49.2863V42.0343H58.1034ZM40.0439 42.0343V49.2863C40.0439 53.2483 36.8241 56.468 32.8621 56.468H32.7918C28.8298 56.468 25.6101 53.2483 25.6101 49.2863V42.0343H40.0439ZM14.7739 56.4543C14.7602 56.4543 14.7456 56.4679 14.7182 56.4679C10.77 56.4543 7.56397 53.2482 7.56397 49.2999V42.0479H21.984V49.2999C21.984 53.2482 18.778 56.4679 14.816 56.4679C14.8023 56.4543 14.7886 56.4543 14.774 56.4543H14.7739ZM58.1039 112.302H30.1464V71.6593H58.1039V112.302ZM89.7014 112.302H61.7439V71.6593H89.7164V112.302H89.7014ZM103.267 112.302H93.3549V69.8543C93.3549 68.8465 92.5434 68.034 91.5346 68.034H28.3246C27.3168 68.034 26.5043 68.8455 26.5043 69.8543V112.302H16.5923V59.9143C19.5883 59.4104 22.1783 57.7023 23.816 55.2658C25.7623 58.1778 29.066 60.0958 32.818 60.0958H32.8883C36.6403 60.0958 39.9441 58.1778 41.8903 55.2658C43.8366 58.1778 47.1404 60.0958 50.8786 60.0958H50.9489C54.7009 60.0958 58.0047 58.1778 59.9372 55.2658C61.8835 58.1778 65.1872 60.0958 68.9254 60.0958H68.9957C72.7477 60.0958 76.0515 58.1778 77.984 55.2658C79.9303 58.1778 83.234 60.0958 86.986 60.0958H87.0563C90.8083 60.0958 94.112 58.1778 96.0583 55.2658C97.6823 57.7013 100.272 59.4093 103.282 59.9143L103.281 112.302H103.267ZM112.283 49.2868C112.283 53.235 109.077 56.4548 105.129 56.4548C105.115 56.4548 105.101 56.4411 105.073 56.4411C105.06 56.4411 105.031 56.4548 105.018 56.4548C101.07 56.4411 97.8498 53.235 97.8498 49.2868V42.0348H112.27L112.269 49.2868H112.283Z" fill="black"/>
<path d="M53.9458 96.8143C54.9536 96.8143 55.7661 96.0027 55.7661 94.994V88.9597C55.7661 87.9519 54.9546 87.1394 53.9458 87.1394C52.938 87.1394 52.1255 87.9509 52.1255 88.9597V94.994C52.1255 96.0028 52.937 96.8143 53.9458 96.8143Z" fill="black"/>
<path d="M65.9009 96.8143C66.9087 96.8143 67.7212 96.0027 67.7212 94.994V88.9597C67.7212 87.9519 66.9096 87.1394 65.9009 87.1394C64.8931 87.1394 64.0806 87.9509 64.0806 88.9597V94.994C64.0815 96.0028 64.8931 96.8143 65.9009 96.8143Z" fill="black"/>
</g>
</svg>
