<svg width="162" height="135" viewBox="0 0 162 135" fill="none" xmlns="http://www.w3.org/2000/svg">
<g opacity="0.1">
<path d="M-21.2627 159.424L40.8493 202.915C46.9662 207.198 55.4239 205.707 59.7071 199.59L144.711 78.194C148.994 72.0771 147.503 63.6194 141.386 59.3362L79.2741 15.8449C73.1571 11.5618 64.6994 13.0531 60.4163 19.1701L-24.5888 140.57C-28.8702 146.684 -27.3785 155.144 -21.2628 159.427L-21.2627 159.424ZM54.4636 195.918C52.206 199.143 47.7451 199.93 44.5198 197.672L-17.5922 154.18C-20.8177 151.922 -21.604 147.462 -19.3456 144.237L-9.3208 129.92L64.4871 181.601L54.4636 195.918ZM53.0858 40.7966L126.894 92.4775L68.1595 176.359L-5.64759 124.677L53.0858 40.7966ZM65.6592 22.8398C67.9168 19.6157 72.3777 18.8281 75.603 21.0865L137.715 64.5778C140.94 66.8362 141.727 71.2962 139.468 74.5216L130.567 87.2342L56.7582 35.5546L65.6592 22.8398Z" fill="black"/>
<path d="M40.9579 115.853C36.7024 112.874 30.8166 113.912 27.8362 118.168C24.8558 122.425 25.8937 128.311 30.1489 131.29C34.4057 134.271 40.2914 133.233 43.2718 128.976C46.2523 124.72 45.2144 118.834 40.9579 115.853ZM33.2086 126.92C31.3619 125.627 30.9126 123.073 32.2057 121.226C33.4987 119.38 36.0517 118.927 37.8995 120.221C39.7463 121.514 40.1967 124.07 38.9037 125.916C37.6097 127.764 35.0553 128.214 33.2086 126.92Z" fill="black"/>
<path d="M65.4853 133.028C61.2297 130.048 55.344 131.086 52.3636 135.342C49.3831 139.599 50.421 145.485 54.6762 148.465C58.9314 151.444 64.8175 150.406 67.7979 146.15C70.7773 141.892 69.7392 136.006 65.4853 133.028ZM57.736 144.095C55.8892 142.802 55.44 140.247 56.733 138.401C58.026 136.554 60.579 136.102 62.4268 137.396C64.2736 138.689 64.7228 141.243 63.4298 143.09C62.1346 144.937 59.5826 145.388 57.736 144.095Z" fill="black"/>
<path d="M52.874 76.7379L54.9603 69.7189L48.8271 61.4533L44.5437 64.6285L49.088 70.7552L46.915 78.0642L47.2533 78.1648L47.0214 78.7164L35.4393 105.858L74.6431 133.309L99.8999 109.666L52.8711 76.7396L52.874 76.7379ZM74.1556 126.457L42.0386 103.968L45.6019 95.6182L80.7864 120.255L74.1556 126.457ZM84.7595 116.528L47.7432 90.6086L51.342 82.1741L91.457 110.263L84.7595 116.528Z" fill="black"/>
</g>
</svg>
