<svg width="80" height="80" viewBox="0 0 80 80" fill="none" xmlns="http://www.w3.org/2000/svg">
<path d="M80 40C80 48.4472 77.3258 56.6775 72.3607 63.5114C67.3956 70.3453 60.3944 75.4319 52.3607 78.0423C44.327 80.6526 35.6731 80.6526 27.6393 78.0423C19.6056 75.432 12.6045 70.3453 7.63934 63.5114C2.67421 56.6775 9.33136e-06 48.4472 0 40C-9.33131e-06 31.5529 2.67418 23.3225 7.63929 16.4886C12.6044 9.65472 19.6055 4.56809 27.6393 1.95776C35.673 -0.652572 44.3269 -0.652587 52.3606 1.95772L45.9331 21.7397C42.0769 20.4868 37.923 20.4868 34.0668 21.7397C30.2107 22.9927 26.8501 25.4343 24.4669 28.7145C22.0836 31.9948 20.8 35.9454 20.8 40C20.8 44.0547 22.0836 48.0052 24.4669 51.2855C26.8501 54.5658 30.2107 57.0073 34.0669 58.2603C37.9231 59.5132 42.0769 59.5132 45.9331 58.2603C49.7893 57.0073 53.1499 54.5657 55.5331 51.2855C57.9164 48.0052 59.2 44.0546 59.2 40H80Z" fill="#112246"/>
</svg>
