<svg width="120" height="108" viewBox="0 0 120 108" fill="none" xmlns="http://www.w3.org/2000/svg">
<g opacity="0.2">
<path d="M75.8551 82.7421C66.9193 82.7361 58.2631 79.6328 51.3595 73.9608C44.4569 68.2881 39.7337 60.3975 37.9949 51.6341C36.257 42.8695 37.612 33.7739 41.8282 25.8963C46.0444 18.0188 52.8611 11.8468 61.1182 8.4319C69.3753 5.01701 78.56 4.57079 87.1093 7.16888C95.6589 9.76688 103.042 15.2487 108.003 22.6802C112.963 30.1115 115.193 39.0335 114.313 47.9247C113.433 56.8162 109.498 65.1278 103.176 71.4424C99.5913 75.0327 95.3318 77.8791 90.6435 79.8182C85.9551 81.7566 80.9291 82.7504 75.8562 82.7418L75.8551 82.7421ZM99.5106 20.4643C93.2364 14.1901 84.7278 10.6657 75.8551 10.6657C66.9826 10.6657 58.4731 14.1899 52.1995 20.4643C45.9253 26.7377 42.4009 35.2472 42.4009 44.1199C42.4009 52.9932 45.9251 61.5019 52.1995 67.7755C58.4729 74.0488 66.9824 77.5741 75.8551 77.5741C84.7284 77.5741 93.2371 74.049 99.5106 67.7746C105.809 61.5141 109.352 53.0003 109.352 44.119C109.352 35.2379 105.81 26.7241 99.5106 20.4635V20.4643Z" fill="black"/>
<path d="M75.8573 23.3577C70.3504 23.3559 65.0691 25.5434 61.1751 29.4374C57.2811 33.3308 55.0935 38.6128 55.0944 44.1197C55.0944 45.5511 53.9338 46.7125 52.5015 46.7125C51.0701 46.7125 49.9086 45.5511 49.9086 44.1197C49.9086 37.2377 52.6422 30.637 57.5084 25.7708C62.3755 20.9045 68.9755 18.1719 75.8573 18.1719C77.2896 18.1719 78.4502 19.3333 78.4502 20.7648C78.4502 22.1971 77.2896 23.3577 75.8573 23.3577V23.3577Z" fill="black"/>
<path d="M38.9395 84.7021L9.83286 113.809C8.81983 114.818 7.18087 114.817 6.16976 113.805C5.15864 112.794 5.15673 111.155 6.16628 110.142L35.2729 81.0355C36.286 80.0233 37.9265 80.0233 38.9396 81.0355C39.9518 82.0485 39.9518 83.689 38.9396 84.7022L38.9395 84.7021Z" fill="black"/>
</g>
</svg>
