<svg width="16" height="4" viewBox="0 0 16 4" fill="none" xmlns="http://www.w3.org/2000/svg">
<path d="M14 4C12.8954 4 12 3.10457 12 2C12 0.895431 12.8954 -3.70217e-08 14 -2.38498e-08C15.1046 -1.06779e-08 16 0.895431 16 2C16 3.10457 15.1046 4 14 4Z" fill="#5D5D5A"/>
<path d="M8 4C6.89543 4 6 3.10457 6 2C6 0.895431 6.89543 -3.70217e-08 8 -2.38498e-08C9.10457 -1.06779e-08 10 0.895431 10 2C10 3.10457 9.10457 4 8 4Z" fill="#5D5D5A"/>
<path d="M2 4C0.89543 4 -3.70217e-08 3.10457 -2.38498e-08 2C-1.06779e-08 0.895431 0.89543 -3.70217e-08 2 -2.38498e-08C3.10457 -1.06779e-08 4 0.895431 4 2C4 3.10457 3.10457 4 2 4Z" fill="#5D5D5A"/>
</svg>
