<svg width="27" height="31" viewBox="0 0 27 31" fill="none" xmlns="http://www.w3.org/2000/svg">
<mask id="path-1-outside-1_2011_8482" maskUnits="userSpaceOnUse" x="7.35571" y="23.6797" width="10" height="7" fill="black">
<rect fill="white" x="7.35571" y="23.6797" width="10" height="7"/>
<path d="M15.3241 25.6639C15.3241 26.0557 15.2469 26.4438 15.0969 26.8059C14.9469 27.1679 14.7271 27.4969 14.45 27.774C14.1729 28.0511 13.8439 28.2709 13.4819 28.4209C13.1198 28.5708 12.7318 28.648 12.3399 28.648C11.948 28.648 11.5599 28.5708 11.1979 28.4209C10.8358 28.2709 10.5069 28.0511 10.2298 27.774C9.95265 27.4969 9.73284 27.1679 9.58287 26.8059C9.4329 26.4438 9.35571 26.0557 9.35571 25.6639L12.3399 25.6639H15.3241Z"/>
</mask>
<path d="M15.3241 25.6639C15.3241 26.0557 15.2469 26.4438 15.0969 26.8059C14.9469 27.1679 14.7271 27.4969 14.45 27.774C14.1729 28.0511 13.8439 28.2709 13.4819 28.4209C13.1198 28.5708 12.7318 28.648 12.3399 28.648C11.948 28.648 11.5599 28.5708 11.1979 28.4209C10.8358 28.2709 10.5069 28.0511 10.2298 27.774C9.95265 27.4969 9.73284 27.1679 9.58287 26.8059C9.4329 26.4438 9.35571 26.0557 9.35571 25.6639L12.3399 25.6639H15.3241Z" stroke="#5D5D5A" stroke-width="2.8" mask="url(#path-1-outside-1_2011_8482)"/>
<path d="M23.6797 26.2606H1V25.0059C1 24.4536 1.44771 24.0059 2 24.0059H2.13399V16.1494C2.13399 10.5262 6.70395 5.96826 12.3399 5.96826C17.9758 5.96826 22.5457 10.5262 22.5457 16.1494V24.0059H22.6797C23.232 24.0059 23.6797 24.4536 23.6797 25.0059V26.2606ZM4.40196 24.0059H20.2777V16.1494C20.2777 11.7719 16.7238 8.22297 12.3399 8.22297C7.95586 8.22297 4.40196 11.7719 4.40196 16.1494V24.0059Z" fill="#5D5D5A" stroke="#EFF1F4" stroke-width="0.4"/>
<circle opacity="0.5" cx="19.3714" cy="7.62849" r="7.62849" fill="#4B70F1"/>
<circle cx="19.3712" cy="7.62831" r="4.38759" fill="#4B70F1"/>
</svg>
