<svg width="31" height="25" viewBox="0 0 31 25" fill="none" xmlns="http://www.w3.org/2000/svg">
<path d="M9.96093 18.2192C9.79962 18.2192 9.63832 18.2134 9.47702 18.2047L4.07658 9.97822C4.07658 9.97532 4.07368 9.97531 4.07368 9.97241L1.92319 6.69924L0.474359 4.4939C0.187811 4.05626 0.0248215 3.54934 0.00261732 3.0267C-0.0195868 2.50406 0.0998168 1.98513 0.348214 1.52476C0.596608 1.06439 0.964767 0.679676 1.41377 0.411284C1.86278 0.142892 2.37596 0.000790948 2.89907 0H9.02859C8.45416 1.17189 8.15501 2.45952 8.15401 3.76462C8.15301 5.06976 8.45016 6.35783 9.02279 7.5306C9.04311 7.57093 9.06344 7.61416 9.08731 7.65448C9.10183 7.68061 9.11634 7.70352 9.13344 7.72965L10.109 9.21622L10.1148 9.22203L13.088 13.745C13.0909 13.7479 13.0938 13.7537 13.0967 13.7566L14.0664 15.2341C14.2388 15.5009 14.4938 15.7038 14.7925 15.8117C15.0912 15.9196 15.417 15.9266 15.7201 15.8316C15.7201 15.8312 15.7202 15.8309 15.7203 15.8305C15.7205 15.8302 15.7207 15.8299 15.721 15.8297C15.7213 15.8294 15.7216 15.8292 15.7219 15.8291C15.7223 15.829 15.7227 15.829 15.723 15.829C15.8356 15.7946 15.9433 15.746 16.0437 15.6845C15.2465 16.4862 14.299 17.1228 13.2553 17.5577C12.2117 17.9926 11.0925 18.2173 9.9619 18.2189L9.96093 18.2192Z" fill="url(#paint0_linear_2002_8937)"/>
<path d="M9.02309 7.53061C8.44924 6.36006 8.15199 5.07331 8.15431 3.76966C8.15376 3.32501 8.18851 2.88099 8.25819 2.44181C8.25871 2.43295 8.26064 2.42423 8.264 2.416C8.39501 1.57655 8.65293 0.76191 9.0289 2.7916e-06H9.16471C9.26882 -0.000146217 9.37289 0.0056702 9.47635 0.0174235H9.48797C10.2929 0.0973053 11.0394 0.473571 11.5824 1.07311C12.1254 1.67265 12.4262 2.45266 12.4263 3.26155V5.46399H10.3567C9.99862 5.46363 9.65285 5.59487 9.38518 5.83279C9.11752 6.07072 8.94663 6.39871 8.90502 6.75442C8.87179 7.01908 8.91266 7.28778 9.02309 7.53061Z" fill="url(#paint1_linear_2002_8937)"/>
<path d="M12.8618 23.3623L9.47607 18.2044C9.63738 18.2131 9.79868 18.2189 9.95998 18.2189C11.0906 18.2174 12.2098 17.9927 13.2534 17.5578C14.297 17.1228 15.2446 16.4863 16.0418 15.6845C16.2304 15.5722 16.3904 15.4176 16.5092 15.2329L16.7315 14.8954C17.0113 14.5364 17.2613 14.1551 17.479 13.7553C17.4835 13.7489 17.4873 13.7422 17.4906 13.735L21.4335 7.72841C21.5791 7.50787 21.6622 7.25198 21.6738 6.98796C21.6855 6.72394 21.6253 6.46169 21.4997 6.22919C21.3741 5.99669 21.1877 5.80261 20.9606 5.66763C20.7333 5.53265 20.4738 5.46184 20.2095 5.46274H18.14V3.26159C18.1401 2.3966 18.4837 1.56706 19.0954 0.955423C19.707 0.34378 20.5365 0.000127072 21.4016 4.15265e-05H27.6679C27.9676 -0.00157743 28.2657 0.0441507 28.5512 0.135536C28.9182 0.248646 29.2574 0.437452 29.547 0.689776C29.5793 0.715907 29.6077 0.741715 29.6393 0.767847C29.6477 0.773654 29.6555 0.780361 29.6625 0.787848C30.1598 1.25566 30.4757 1.88419 30.5544 2.56237C30.6331 3.24053 30.4695 3.92471 30.0926 4.49395L18.6826 21.8825L17.71 23.3629C17.4454 23.764 17.0855 24.0932 16.6624 24.321C16.2392 24.5488 15.7662 24.668 15.2857 24.6679C14.8052 24.6678 14.3322 24.5485 13.9092 24.3207C13.4861 24.0928 13.1262 23.7635 12.8618 23.3623Z" fill="url(#paint2_linear_2002_8937)"/>
<g style="mix-blend-mode:screen" opacity="0.25">
<path d="M15.2889 24.0929C14.9026 24.0963 14.5218 24.002 14.1817 23.8188C13.8416 23.6356 13.5533 23.3695 13.3436 23.0451L10.8901 19.3073C13.1416 20.6062 16.9084 20.6639 22.655 14.7815L17.2287 23.048C17.0198 23.3717 16.7324 23.6372 16.3932 23.8199C16.054 24.0026 15.6741 24.0965 15.2889 24.0929Z" fill="white"/>
</g>
<g style="mix-blend-mode:multiply" opacity="0.3">
<path d="M9.96045 18.2213C10.2982 18.1635 10.636 18.1171 10.9679 18.0451C11.2999 17.9732 11.6316 17.9035 11.9548 17.8025C12.2839 17.7161 12.6016 17.5918 12.9191 17.4822C13.2336 17.358 13.5452 17.2341 13.8456 17.0812C14.1479 16.9347 14.4409 16.7698 14.7231 16.5876C15.0053 16.4095 15.2753 16.2127 15.5312 15.9985C15.5957 15.9437 15.6554 15.8888 15.7187 15.834C15.7187 15.8336 15.7187 15.8332 15.7189 15.8329C15.719 15.8325 15.7192 15.8323 15.7195 15.832C15.7198 15.8318 15.7201 15.8316 15.7205 15.8315C15.7208 15.8314 15.7212 15.8313 15.7215 15.8314C15.8341 15.7969 15.9418 15.7483 16.0422 15.6869C16.2309 15.5745 16.3909 15.4199 16.5097 15.2352L16.732 14.8978L17.4794 13.7577C17.4839 13.7512 17.4878 13.7444 17.4911 13.7373L21.434 7.73073C21.5796 7.51019 21.6626 7.25427 21.6743 6.99028C21.6859 6.72626 21.6258 6.46401 21.5002 6.23151C21.3746 5.99901 21.1882 5.80493 20.961 5.66995C20.7338 5.53497 20.4742 5.46416 20.21 5.46506H18.1405V3.26392C18.1779 3.97365 18.1953 4.67822 18.2185 5.38538C18.9747 5.35667 19.728 5.34505 20.4842 5.33053H20.4987L20.5158 5.33344C20.6419 5.36634 20.7647 5.41083 20.8826 5.46635C20.9996 5.52042 21.1108 5.58614 21.2146 5.6625C21.3208 5.74225 21.4181 5.83322 21.5049 5.93381C21.5456 5.98575 21.583 6.0435 21.6204 6.09834C21.6569 6.15592 21.6878 6.21683 21.7127 6.28029C21.7423 6.342 21.7646 6.40694 21.7791 6.47385C21.7992 6.53866 21.8119 6.60554 21.8169 6.67322C21.8248 6.73926 21.8286 6.80575 21.8282 6.87227L21.8169 7.07132C21.7997 7.19998 21.7736 7.32728 21.7388 7.45232L21.6059 7.81041L21.603 7.8188L21.5917 7.83622C20.8584 8.98502 20.1109 10.1267 19.3657 11.2681L18.2366 12.9779L17.1023 14.6781C16.9062 14.9665 16.7329 15.2349 16.5194 15.5381C16.2865 15.8053 16.0271 16.0481 15.7451 16.2627C15.4692 16.4753 15.18 16.67 14.8792 16.8457C14.58 17.0208 14.2706 17.1778 13.9527 17.316C13.6382 17.4605 13.3146 17.5757 12.9884 17.6912C12.8846 17.7202 12.7778 17.7519 12.6739 17.778C12.4458 17.8444 12.2222 17.9048 11.99 17.9483C11.658 18.029 11.3173 18.0774 10.9796 18.13C10.6418 18.1825 10.3011 18.1893 9.96045 18.2213Z" fill="black"/>
</g>
<g style="mix-blend-mode:screen" opacity="0.35">
<path d="M18.6831 21.8839C19.1102 21.1506 19.5577 20.4322 19.9964 19.7044C20.441 18.9656 20.9055 18.2411 21.3617 17.5081L22.7386 15.3202L24.1384 13.1439C25.0735 11.6975 26.0183 10.2565 26.9728 8.82094L28.4132 6.67367C28.8865 5.96071 29.383 5.25646 29.8649 4.5464C29.9572 4.34993 30.0553 4.15379 30.145 3.95732L30.2488 3.64568C30.2879 3.54409 30.3159 3.43867 30.3324 3.33114L30.3873 3.00853C30.396 2.90174 30.3901 2.79496 30.396 2.68592C30.4017 2.57772 30.3931 2.46923 30.3702 2.36331C30.3617 2.25516 30.34 2.14845 30.3057 2.04555C30.277 1.94035 30.2414 1.83721 30.1989 1.73681C30.1498 1.64003 30.1063 1.53776 30.0488 1.44647C29.9914 1.35517 29.9304 1.26194 29.864 1.17257C29.7888 1.0887 29.7198 1.00224 29.6446 0.921262C29.3273 0.600691 28.9573 0.337048 28.5507 0.141846C28.7649 0.219494 28.9708 0.318155 29.1656 0.436385C29.2657 0.492479 29.362 0.555091 29.454 0.623819C29.5185 0.670274 29.5781 0.720601 29.6388 0.774154C29.6473 0.779961 29.6551 0.786668 29.6621 0.794155C30.1593 1.26197 30.4752 1.8905 30.5539 2.56868C30.6326 3.24684 30.469 3.93103 30.0921 4.50027L18.6831 21.8839Z" fill="white"/>
</g>
<g style="mix-blend-mode:multiply" opacity="0.3">
<path d="M13.0873 13.7445C12.9024 13.5135 12.7234 13.2767 12.5476 13.0403C12.3685 12.7977 12.1837 12.558 12.0078 12.3157C11.653 11.8279 11.3091 11.3372 10.9629 10.8436C10.6222 10.3472 10.2787 9.85647 9.9496 9.35417C9.61184 8.85478 9.28278 8.35409 8.95694 7.8476L8.95114 7.83598L8.94823 7.83018C8.85145 7.61951 8.73176 7.41466 8.65079 7.19529C8.55956 6.97953 8.48052 6.75883 8.414 6.53427C8.34212 6.31163 8.2815 6.08552 8.23237 5.85679C8.19204 5.62903 8.14559 5.40095 8.11978 5.16996C8.08752 4.93898 8.07655 4.70541 8.06494 4.47442C8.05429 4.24363 8.05526 4.01245 8.06784 3.78179C8.08597 3.33001 8.14972 2.88124 8.25818 2.44231C8.25869 2.43345 8.26066 2.42473 8.26398 2.4165C8.24108 2.64426 8.23818 2.87234 8.23172 3.10043C8.22527 3.32852 8.23753 3.5537 8.25173 3.78179C8.26592 4.00987 8.28947 4.23182 8.31625 4.4541C8.34851 4.67992 8.3827 4.90155 8.42593 5.12093C8.46368 5.3432 8.52272 5.55677 8.57595 5.77614C8.64531 5.9868 8.69725 6.20617 8.77822 6.41393C8.81564 6.52943 8.85887 6.64202 8.905 6.75461C8.87184 7.0194 8.91281 7.28823 9.0234 7.53112C9.04372 7.57145 9.06405 7.61468 9.08792 7.655C9.10244 7.68113 9.11696 7.70404 9.13405 7.73017L10.1096 9.21674L10.1154 9.22255L13.0873 13.7445Z" fill="black"/>
</g>
<defs>
<linearGradient id="paint0_linear_2002_8937" x1="-264.336" y1="146.428" x2="-246.11" y2="146.428" gradientUnits="userSpaceOnUse">
<stop stop-color="#C33764"/>
<stop offset="1" stop-color="#1D2671"/>
</linearGradient>
<linearGradient id="paint1_linear_2002_8937" x1="-262.296" y1="141.673" x2="-258.046" y2="144.768" gradientUnits="userSpaceOnUse">
<stop stop-color="#E2316A"/>
<stop offset="1" stop-color="#1D2671"/>
</linearGradient>
<linearGradient id="paint2_linear_2002_8937" x1="-241.986" y1="141.717" x2="-272.271" y2="128.413" gradientUnits="userSpaceOnUse">
<stop stop-color="#08ADF8"/>
<stop offset="1" stop-color="#4700FC"/>
</linearGradient>
</defs>
</svg>
