<svg width="82" height="37" viewBox="0 0 82 37" fill="none" xmlns="http://www.w3.org/2000/svg">
<path d="M6.16309 2.75879C5.54785 2.75879 4.99707 2.87012 4.51074 3.09277C4.03027 3.31543 3.62305 3.6377 3.28906 4.05957C2.95508 4.47559 2.7002 4.98242 2.52441 5.58008C2.34863 6.17188 2.26074 6.83984 2.26074 7.58398C2.26074 8.58008 2.40137 9.43848 2.68262 10.1592C2.96387 10.874 3.3916 11.4248 3.96582 11.8115C4.54004 12.1924 5.2666 12.3828 6.14551 12.3828C6.69043 12.3828 7.2207 12.3301 7.73633 12.2246C8.25195 12.1191 8.78516 11.9756 9.33594 11.7939V13.5869C8.81445 13.792 8.28711 13.9414 7.75391 14.0352C7.2207 14.1289 6.60547 14.1758 5.9082 14.1758C4.5957 14.1758 3.50586 13.9033 2.63867 13.3584C1.77734 12.8135 1.13281 12.0459 0.705078 11.0557C0.283203 10.0654 0.0722656 8.90527 0.0722656 7.5752C0.0722656 6.60254 0.207031 5.71191 0.476562 4.90332C0.746094 4.09473 1.13867 3.39746 1.6543 2.81152C2.16992 2.21973 2.80566 1.76562 3.56152 1.44922C4.32324 1.12695 5.19336 0.96582 6.17188 0.96582C6.81641 0.96582 7.44922 1.03906 8.07031 1.18555C8.69727 1.32617 9.27734 1.52832 9.81055 1.79199L9.07227 3.53223C8.62695 3.32129 8.16113 3.13965 7.6748 2.9873C7.18848 2.83496 6.68457 2.75879 6.16309 2.75879ZM20.498 9.11328C20.498 9.92188 20.3926 10.6396 20.1816 11.2666C19.9707 11.8936 19.6631 12.4238 19.2588 12.8574C18.8545 13.2852 18.3682 13.6133 17.7998 13.8418C17.2314 14.0645 16.5898 14.1758 15.875 14.1758C15.207 14.1758 14.5947 14.0645 14.0381 13.8418C13.4814 13.6133 12.998 13.2852 12.5879 12.8574C12.1836 12.4238 11.8701 11.8936 11.6475 11.2666C11.4248 10.6396 11.3135 9.92188 11.3135 9.11328C11.3135 8.04102 11.498 7.13281 11.8672 6.38867C12.2422 5.63867 12.7754 5.06738 13.4668 4.6748C14.1582 4.28223 14.9814 4.08594 15.9365 4.08594C16.833 4.08594 17.624 4.28223 18.3096 4.6748C18.9951 5.06738 19.5312 5.63867 19.918 6.38867C20.3047 7.13867 20.498 8.04688 20.498 9.11328ZM13.4404 9.11328C13.4404 9.82227 13.5254 10.4287 13.6953 10.9326C13.8711 11.4365 14.1406 11.8232 14.5039 12.0928C14.8672 12.3564 15.3359 12.4883 15.9102 12.4883C16.4844 12.4883 16.9531 12.3564 17.3164 12.0928C17.6797 11.8232 17.9463 11.4365 18.1162 10.9326C18.2861 10.4287 18.3711 9.82227 18.3711 9.11328C18.3711 8.4043 18.2861 7.80371 18.1162 7.31152C17.9463 6.81348 17.6797 6.43555 17.3164 6.17773C16.9531 5.91406 16.4814 5.78223 15.9014 5.78223C15.0459 5.78223 14.4219 6.06934 14.0293 6.64355C13.6367 7.21777 13.4404 8.04102 13.4404 9.11328ZM33.8662 4.08594C34.9561 4.08594 35.7764 4.36719 36.3271 4.92969C36.8838 5.49219 37.1621 6.39453 37.1621 7.63672V14H35.0967V8.00586C35.0967 7.26758 34.9531 6.71094 34.666 6.33594C34.3789 5.96094 33.9424 5.77344 33.3564 5.77344C32.5361 5.77344 31.9443 6.03711 31.5811 6.56445C31.2236 7.08594 31.0449 7.84473 31.0449 8.84082V14H28.9795V8.00586C28.9795 7.51367 28.915 7.10352 28.7861 6.77539C28.6631 6.44141 28.4727 6.19238 28.2148 6.02832C27.957 5.8584 27.6318 5.77344 27.2393 5.77344C26.6709 5.77344 26.2168 5.90234 25.877 6.16016C25.543 6.41797 25.3027 6.79883 25.1562 7.30273C25.0098 7.80078 24.9365 8.41309 24.9365 9.13965V14H22.8711V4.27051H24.4795L24.7695 5.58008H24.8838C25.083 5.24023 25.3291 4.96191 25.6221 4.74512C25.9209 4.52246 26.252 4.3584 26.6152 4.25293C26.9785 4.1416 27.3564 4.08594 27.749 4.08594C28.4756 4.08594 29.0879 4.21484 29.5859 4.47266C30.084 4.72461 30.4561 5.11133 30.7021 5.63281H30.8604C31.165 5.10547 31.5898 4.71582 32.1348 4.46387C32.6797 4.21191 33.2568 4.08594 33.8662 4.08594ZM45.0371 4.08594C46.1914 4.08594 47.1172 4.50781 47.8145 5.35156C48.5176 6.19531 48.8691 7.44922 48.8691 9.11328C48.8691 10.2148 48.7051 11.1436 48.377 11.8994C48.0547 12.6494 47.6006 13.2178 47.0146 13.6045C46.4346 13.9854 45.7578 14.1758 44.9844 14.1758C44.4922 14.1758 44.0645 14.1113 43.7012 13.9824C43.3379 13.8535 43.0273 13.6865 42.7695 13.4814C42.5117 13.2705 42.2949 13.042 42.1191 12.7959H41.9961C42.0254 13.0303 42.0518 13.291 42.0752 13.5781C42.1045 13.8594 42.1191 14.1172 42.1191 14.3516V18.3154H40.0449V4.27051H41.7324L42.0225 5.61523H42.1191C42.3008 5.33984 42.5205 5.08496 42.7783 4.85059C43.042 4.61621 43.3584 4.43164 43.7275 4.29688C44.1025 4.15625 44.5391 4.08594 45.0371 4.08594ZM44.4834 5.77344C43.915 5.77344 43.458 5.8877 43.1123 6.11621C42.7725 6.33887 42.5234 6.67578 42.3652 7.12695C42.2129 7.57812 42.1309 8.14355 42.1191 8.82324V9.11328C42.1191 9.83398 42.1924 10.4463 42.3389 10.9502C42.4912 11.4482 42.7402 11.8291 43.0859 12.0928C43.4375 12.3506 43.9121 12.4795 44.5098 12.4795C45.0137 12.4795 45.4297 12.3418 45.7578 12.0664C46.0918 11.791 46.3408 11.3984 46.5049 10.8887C46.6689 10.3789 46.751 9.77832 46.751 9.08691C46.751 8.03809 46.5635 7.22363 46.1885 6.64355C45.8193 6.06348 45.251 5.77344 44.4834 5.77344ZM55.0742 4.08594C56.3047 4.08594 57.2334 4.3584 57.8604 4.90332C58.4932 5.44824 58.8096 6.29785 58.8096 7.45215V14H57.3418L56.9463 12.6201H56.876C56.6006 12.9717 56.3164 13.2617 56.0234 13.4902C55.7305 13.7188 55.3906 13.8887 55.0039 14C54.623 14.1172 54.1572 14.1758 53.6064 14.1758C53.0264 14.1758 52.5078 14.0703 52.0508 13.8594C51.5938 13.6426 51.2334 13.3145 50.9697 12.875C50.7061 12.4355 50.5742 11.8789 50.5742 11.2051C50.5742 10.2031 50.9463 9.4502 51.6904 8.94629C52.4404 8.44238 53.5713 8.16406 55.083 8.11133L56.7705 8.0498V7.54004C56.7705 6.86621 56.6123 6.38574 56.2959 6.09863C55.9854 5.81152 55.5459 5.66797 54.9775 5.66797C54.4912 5.66797 54.0195 5.73828 53.5625 5.87891C53.1055 6.01953 52.6602 6.19238 52.2266 6.39746L51.5586 4.93848C52.0332 4.68652 52.5723 4.48145 53.1758 4.32324C53.7852 4.16504 54.418 4.08594 55.0742 4.08594ZM56.7617 9.35059L55.5049 9.39453C54.4736 9.42969 53.75 9.60547 53.334 9.92188C52.918 10.2383 52.71 10.6719 52.71 11.2227C52.71 11.7031 52.8535 12.0547 53.1406 12.2773C53.4277 12.4941 53.8057 12.6025 54.2744 12.6025C54.9893 12.6025 55.5811 12.4004 56.0498 11.9961C56.5244 11.5859 56.7617 10.9854 56.7617 10.1943V9.35059ZM66.7725 4.08594C67.8682 4.08594 68.7207 4.37012 69.3301 4.93848C69.9453 5.50098 70.2529 6.40625 70.2529 7.6543V14H68.1875V8.04102C68.1875 7.28516 68.0322 6.71973 67.7217 6.34473C67.4111 5.96387 66.9307 5.77344 66.2803 5.77344C65.3369 5.77344 64.6807 6.06348 64.3115 6.64355C63.9482 7.22363 63.7666 8.06445 63.7666 9.16602V14H61.7012V4.27051H63.3096L63.5996 5.58887H63.7139C63.9248 5.24902 64.1855 4.9707 64.4961 4.75391C64.8125 4.53125 65.1641 4.36426 65.5508 4.25293C65.9434 4.1416 66.3506 4.08594 66.7725 4.08594ZM71.6768 4.27051H73.9268L75.9219 9.8252C76.0098 10.0771 76.0889 10.3262 76.1592 10.5723C76.2354 10.8125 76.2998 11.0498 76.3525 11.2842C76.4111 11.5186 76.458 11.7529 76.4932 11.9873H76.5459C76.6045 11.6826 76.6865 11.3428 76.792 10.9678C76.9033 10.5869 77.0264 10.2061 77.1611 9.8252L79.0771 4.27051H81.3008L77.126 15.3359C76.8857 15.9688 76.5898 16.5078 76.2383 16.9531C75.8926 17.4043 75.4824 17.7441 75.0078 17.9727C74.5332 18.207 73.9912 18.3242 73.3818 18.3242C73.0889 18.3242 72.834 18.3066 72.6172 18.2715C72.4004 18.2422 72.2158 18.21 72.0635 18.1748V16.5225C72.1865 16.5518 72.3418 16.5781 72.5293 16.6016C72.7168 16.625 72.9102 16.6367 73.1094 16.6367C73.4785 16.6367 73.7979 16.5635 74.0674 16.417C74.3369 16.2705 74.5654 16.0625 74.7529 15.793C74.9404 15.5293 75.0957 15.2275 75.2188 14.8877L75.5615 13.9736L71.6768 4.27051ZM0.6875 32V19.1504H2.79688V30.207H8.25488V32H0.6875ZM18.8809 27.1133C18.8809 27.9219 18.7754 28.6396 18.5645 29.2666C18.3535 29.8936 18.0459 30.4238 17.6416 30.8574C17.2373 31.2852 16.751 31.6133 16.1826 31.8418C15.6143 32.0645 14.9727 32.1758 14.2578 32.1758C13.5898 32.1758 12.9775 32.0645 12.4209 31.8418C11.8643 31.6133 11.3809 31.2852 10.9707 30.8574C10.5664 30.4238 10.2529 29.8936 10.0303 29.2666C9.80762 28.6396 9.69629 27.9219 9.69629 27.1133C9.69629 26.041 9.88086 25.1328 10.25 24.3887C10.625 23.6387 11.1582 23.0674 11.8496 22.6748C12.541 22.2822 13.3643 22.0859 14.3193 22.0859C15.2158 22.0859 16.0068 22.2822 16.6924 22.6748C17.3779 23.0674 17.9141 23.6387 18.3008 24.3887C18.6875 25.1387 18.8809 26.0469 18.8809 27.1133ZM11.8232 27.1133C11.8232 27.8223 11.9082 28.4287 12.0781 28.9326C12.2539 29.4365 12.5234 29.8232 12.8867 30.0928C13.25 30.3564 13.7188 30.4883 14.293 30.4883C14.8672 30.4883 15.3359 30.3564 15.6992 30.0928C16.0625 29.8232 16.3291 29.4365 16.499 28.9326C16.6689 28.4287 16.7539 27.8223 16.7539 27.1133C16.7539 26.4043 16.6689 25.8037 16.499 25.3115C16.3291 24.8135 16.0625 24.4355 15.6992 24.1777C15.3359 23.9141 14.8643 23.7822 14.2842 23.7822C13.4287 23.7822 12.8047 24.0693 12.4121 24.6436C12.0195 25.2178 11.8232 26.041 11.8232 27.1133ZM24.0312 36.3242C22.7129 36.3242 21.7021 36.0869 20.999 35.6123C20.2959 35.1377 19.9443 34.4727 19.9443 33.6172C19.9443 33.0195 20.1318 32.5127 20.5068 32.0967C20.8818 31.6865 21.418 31.4023 22.1152 31.2441C21.8516 31.127 21.623 30.9453 21.4297 30.6992C21.2422 30.4473 21.1484 30.1689 21.1484 29.8643C21.1484 29.501 21.251 29.1904 21.4561 28.9326C21.6611 28.6748 21.9688 28.4258 22.3789 28.1855C21.8691 27.9688 21.459 27.6172 21.1484 27.1309C20.8438 26.6387 20.6914 26.0615 20.6914 25.3994C20.6914 24.6963 20.8408 24.0986 21.1396 23.6064C21.4385 23.1084 21.875 22.7305 22.4492 22.4727C23.0234 22.209 23.7178 22.0771 24.5322 22.0771C24.708 22.0771 24.8984 22.0889 25.1035 22.1123C25.3145 22.1299 25.5078 22.1533 25.6836 22.1826C25.8652 22.2061 26.0029 22.2324 26.0967 22.2617H29.4629V23.4131L27.8105 23.7207C27.9688 23.9434 28.0947 24.1982 28.1885 24.4854C28.2822 24.7666 28.3291 25.0742 28.3291 25.4082C28.3291 26.416 27.9805 27.21 27.2832 27.79C26.5918 28.3643 25.6367 28.6514 24.418 28.6514C24.125 28.6396 23.8408 28.6162 23.5654 28.5811C23.3545 28.71 23.1934 28.8535 23.082 29.0117C22.9707 29.1641 22.915 29.3369 22.915 29.5303C22.915 29.6885 22.9707 29.8174 23.082 29.917C23.1934 30.0107 23.3574 30.0811 23.5742 30.1279C23.7969 30.1748 24.0664 30.1982 24.3828 30.1982H26.0615C27.1279 30.1982 27.9424 30.4238 28.5049 30.875C29.0674 31.3262 29.3486 31.9883 29.3486 32.8613C29.3486 33.9688 28.8916 34.8213 27.9775 35.4189C27.0635 36.0225 25.748 36.3242 24.0312 36.3242ZM24.1104 34.874C24.8311 34.874 25.4375 34.8037 25.9297 34.6631C26.4219 34.5225 26.7939 34.3203 27.0459 34.0566C27.2979 33.7988 27.4238 33.4912 27.4238 33.1338C27.4238 32.8174 27.3447 32.5742 27.1865 32.4043C27.0283 32.2344 26.791 32.1172 26.4746 32.0527C26.1582 31.9883 25.7656 31.9561 25.2969 31.9561H23.7676C23.3867 31.9561 23.0498 32.0146 22.7568 32.1318C22.4639 32.2549 22.2354 32.4307 22.0713 32.6592C21.9131 32.8877 21.834 33.1631 21.834 33.4854C21.834 33.9307 22.0303 34.2734 22.4229 34.5137C22.8213 34.7539 23.3838 34.874 24.1104 34.874ZM24.5146 27.2979C25.1182 27.2979 25.5664 27.1338 25.8594 26.8057C26.1523 26.4717 26.2988 26.0029 26.2988 25.3994C26.2988 24.7432 26.1465 24.251 25.8418 23.9229C25.543 23.5947 25.0977 23.4307 24.5059 23.4307C23.9258 23.4307 23.4834 23.5977 23.1787 23.9316C22.8799 24.2656 22.7305 24.7607 22.7305 25.417C22.7305 26.0088 22.8799 26.4717 23.1787 26.8057C23.4834 27.1338 23.9287 27.2979 24.5146 27.2979ZM39.8516 27.1133C39.8516 27.9219 39.7461 28.6396 39.5352 29.2666C39.3242 29.8936 39.0166 30.4238 38.6123 30.8574C38.208 31.2852 37.7217 31.6133 37.1533 31.8418C36.585 32.0645 35.9434 32.1758 35.2285 32.1758C34.5605 32.1758 33.9482 32.0645 33.3916 31.8418C32.835 31.6133 32.3516 31.2852 31.9414 30.8574C31.5371 30.4238 31.2236 29.8936 31.001 29.2666C30.7783 28.6396 30.667 27.9219 30.667 27.1133C30.667 26.041 30.8516 25.1328 31.2207 24.3887C31.5957 23.6387 32.1289 23.0674 32.8203 22.6748C33.5117 22.2822 34.335 22.0859 35.29 22.0859C36.1865 22.0859 36.9775 22.2822 37.6631 22.6748C38.3486 23.0674 38.8848 23.6387 39.2715 24.3887C39.6582 25.1387 39.8516 26.0469 39.8516 27.1133ZM32.7939 27.1133C32.7939 27.8223 32.8789 28.4287 33.0488 28.9326C33.2246 29.4365 33.4941 29.8232 33.8574 30.0928C34.2207 30.3564 34.6895 30.4883 35.2637 30.4883C35.8379 30.4883 36.3066 30.3564 36.6699 30.0928C37.0332 29.8232 37.2998 29.4365 37.4697 28.9326C37.6396 28.4287 37.7246 27.8223 37.7246 27.1133C37.7246 26.4043 37.6396 25.8037 37.4697 25.3115C37.2998 24.8135 37.0332 24.4355 36.6699 24.1777C36.3066 23.9141 35.835 23.7822 35.2549 23.7822C34.3994 23.7822 33.7754 24.0693 33.3828 24.6436C32.9902 25.2178 32.7939 26.041 32.7939 27.1133Z" fill="#575B5F"/>
</svg>
