<svg width="25" height="26" viewBox="0 0 25 26" fill="none" xmlns="http://www.w3.org/2000/svg">
<mask id="path-1-outside-1_2011_8997" maskUnits="userSpaceOnUse" x="7.35547" y="18.7109" width="10" height="7" fill="black">
<rect fill="white" x="7.35547" y="18.7109" width="10" height="7"/>
<path d="M15.3238 20.6951C15.3238 21.087 15.2466 21.475 15.0967 21.8371C14.9467 22.1992 14.7269 22.5281 14.4498 22.8052C14.1727 23.0823 13.8437 23.3022 13.4816 23.4521C13.1196 23.6021 12.7315 23.6793 12.3396 23.6793C11.9478 23.6793 11.5597 23.6021 11.1976 23.4521C10.8356 23.3022 10.5066 23.0823 10.2295 22.8052C9.95241 22.5281 9.73259 22.1992 9.58263 21.8371C9.43266 21.475 9.35547 21.087 9.35547 20.6951L12.3396 20.6951H15.3238Z"/>
</mask>
<path d="M15.3238 20.6951C15.3238 21.087 15.2466 21.475 15.0967 21.8371C14.9467 22.1992 14.7269 22.5281 14.4498 22.8052C14.1727 23.0823 13.8437 23.3022 13.4816 23.4521C13.1196 23.6021 12.7315 23.6793 12.3396 23.6793C11.9478 23.6793 11.5597 23.6021 11.1976 23.4521C10.8356 23.3022 10.5066 23.0823 10.2295 22.8052C9.95241 22.5281 9.73259 22.1992 9.58263 21.8371C9.43266 21.475 9.35547 21.087 9.35547 20.6951L12.3396 20.6951H15.3238Z" stroke="white" stroke-width="2.8" mask="url(#path-1-outside-1_2011_8997)"/>
<path d="M23.6797 21.2924H1V20.0377C1 19.4854 1.44771 19.0377 2 19.0377H2.13399V11.1811C2.13399 5.55789 6.70395 1 12.3399 1C17.9758 1 22.5457 5.55789 22.5457 11.1811V19.0377H22.6797C23.232 19.0377 23.6797 19.4854 23.6797 20.0377V21.2924ZM4.40196 19.0377H20.2777V11.1811C20.2777 6.80362 16.7238 3.25471 12.3399 3.25471C7.95586 3.25471 4.40196 6.80362 4.40196 11.1811V19.0377Z" fill="white" stroke="#4B70F1" stroke-width="0.7"/>
<path d="M12.5 9V15" stroke="white" stroke-width="1.3" stroke-linecap="round"/>
<path d="M12.5 9V15" stroke="white" stroke-width="1.3" stroke-linecap="round"/>
<path d="M12.5 9V15" stroke="white" stroke-width="1.3" stroke-linecap="round"/>
<path d="M15.5 12L9.5 12" stroke="white" stroke-width="1.3" stroke-linecap="round"/>
<path d="M15.5 12L9.5 12" stroke="white" stroke-width="1.3" stroke-linecap="round"/>
<path d="M15.5 12L9.5 12" stroke="white" stroke-width="1.3" stroke-linecap="round"/>
</svg>
