<svg width="24" height="24" viewBox="0 0 24 24" fill="none" xmlns="http://www.w3.org/2000/svg">
<path fill-rule="evenodd" clip-rule="evenodd" d="M11.9128 16.525H15.325C15.325 17.3417 15.6125 18.0375 16.1875 18.6125C16.7625 19.1875 17.4583 19.475 18.275 19.475C19.0917 19.475 19.7875 19.1875 20.3625 18.6125C20.9375 18.0375 21.225 17.3417 21.225 16.525H23V12.2L19.6 7.675H16.975V3.5H2.5C2.1 3.5 1.75 3.65 1.45 3.95C1.15 4.25 1 4.6 1 5V12.1822C1.40215 11.5774 1.91113 11.0497 2.5 10.626V5H15.475V15.025H11.9815C11.9937 15.1817 12 15.3401 12 15.5C12 15.8494 11.9701 16.1919 11.9128 16.525ZM19.3 17.55C19.0167 17.8333 18.675 17.975 18.275 17.975C17.875 17.975 17.5333 17.8333 17.25 17.55C16.9667 17.2667 16.825 16.925 16.825 16.525C16.825 16.125 16.9667 15.7833 17.25 15.5C17.5333 15.2167 17.875 15.075 18.275 15.075C18.675 15.075 19.0167 15.2167 19.3 15.5C19.5833 15.7833 19.725 16.125 19.725 16.525C19.725 16.925 19.5833 17.2667 19.3 17.55ZM21.625 12.875H16.975V9.175H18.85L21.625 12.875ZM6 11.75C3.92893 11.75 2.25 13.4289 2.25 15.5C2.25 17.5711 3.92893 19.25 6 19.25C8.07107 19.25 9.75 17.5711 9.75 15.5C9.75 13.4289 8.07107 11.75 6 11.75ZM0.75 15.5C0.75 12.6005 3.10051 10.25 6 10.25C8.8995 10.25 11.25 12.6005 11.25 15.5C11.25 18.3995 8.8995 20.75 6 20.75C3.10051 20.75 0.75 18.3995 0.75 15.5ZM6.75 13.5C6.75 13.0858 6.41421 12.75 6 12.75C5.58579 12.75 5.25 13.0858 5.25 13.5V16C5.25 16.2278 5.35357 16.4433 5.53148 16.5857L6.78148 17.5857C7.10493 17.8444 7.57689 17.792 7.83565 17.4685C8.09441 17.1451 8.04197 16.6731 7.71852 16.4143L6.75 15.6395V13.5Z" fill="#F38E03"/>
</svg>
