<svg width="20" height="18" viewBox="0 0 20 18" fill="none" xmlns="http://www.w3.org/2000/svg">
<path d="M1.86072 0.95C1.35774 0.95 0.95 1.35774 0.95 1.86072V3.50865C0.95 4.01163 1.35774 4.41937 1.86072 4.41937H2.46781V15.7145C2.46781 16.659 3.2429 17.399 4.15237 17.399H16.4366C17.3812 17.399 18.1212 16.6239 18.1212 15.7145V4.41937H18.7281C19.2311 4.41937 19.6389 4.01163 19.6389 3.50865V1.86072C19.6389 1.35774 19.2311 0.95 18.7281 0.95H1.86072ZM1.91072 1.91072H18.6782V3.45865L1.91072 3.45865V1.91072ZM3.49707 15.7145V4.41937H17.0919V15.7145C17.0919 16.0843 16.7867 16.3698 16.4366 16.3698H4.15237C3.78254 16.3698 3.49707 16.0645 3.49707 15.7145Z" fill="#5D5D5A" stroke="#5D5D5A" stroke-width="0.1"/>
<path d="M7.63886 6.03521C7.37356 6.03521 7.1585 6.25027 7.1585 6.51556C7.1585 6.78086 7.37356 6.99592 7.63886 6.99592H12.9508C13.2161 6.99592 13.4312 6.78086 13.4312 6.51556C13.4312 6.25027 13.2161 6.03521 12.9508 6.03521H7.63886Z" fill="#5D5D5A" stroke="#5D5D5A" stroke-width="0.1" stroke-linecap="round"/>
</svg>
