<svg width="28" height="24" viewBox="0 0 28 24" fill="none" xmlns="http://www.w3.org/2000/svg">
<path fill-rule="evenodd" clip-rule="evenodd" d="M0 1.26299C0 0.565458 0.565459 0 1.26299 0H26.0137C26.7112 0 27.2767 0.565459 27.2767 1.26299V3.68111C27.2767 4.37864 26.7112 4.94409 26.0137 4.94409H25.0496V21.5915C25.0496 22.8865 23.9956 23.99 22.6512 23.99H4.62568C3.33069 23.99 2.22719 22.936 2.22719 21.5915V4.94409H1.26299C0.56546 4.94409 0 4.37863 0 3.68111V1.26299ZM1.26299 1.26299H26.0137V3.68111L1.26299 3.68111V1.26299ZM3.59074 4.94409V21.5915C3.59074 22.1442 4.04102 22.6264 4.62568 22.6264H22.6512C23.2038 22.6264 23.6861 22.1762 23.6861 21.5915V4.94409H3.59074Z" fill="#494B43"/>
<path fill-rule="evenodd" clip-rule="evenodd" d="M9.10938 8.09341C9.10938 7.74464 9.3921 7.46191 9.74087 7.46191H17.5355C17.8842 7.46191 18.167 7.74464 18.167 8.09341C18.167 8.44217 17.8842 8.7249 17.5355 8.7249H9.74087C9.3921 8.7249 9.10938 8.44217 9.10938 8.09341Z" fill="#494B43"/>
</svg>
