<svg width="14" height="15" viewBox="0 0 14 15" fill="none" xmlns="http://www.w3.org/2000/svg">
<line x1="8.13145" y1="7.59414" x2="0.600106" y2="7.59414" stroke="#5D5D5A" stroke-width="1.2" stroke-linecap="round"/>
<line x1="12.9923" y1="7.59414" x2="11.7843" y2="7.59414" stroke="#5D5D5A" stroke-width="1.2" stroke-linecap="round"/>
<line x1="2.45518" y1="2.18618" x2="0.600634" y2="2.18618" stroke="#5D5D5A" stroke-width="1.2" stroke-linecap="round"/>
<line x1="2.47324" y1="12.995" x2="0.601495" y2="12.995" stroke="#5D5D5A" stroke-width="1.2" stroke-linecap="round"/>
<line x1="12.9933" y1="2.18618" x2="6.38359" y2="2.18618" stroke="#5D5D5A" stroke-width="1.2" stroke-linecap="round"/>
<line x1="12.9933" y1="12.995" x2="6.39879" y2="12.995" stroke="#5D5D5A" stroke-width="1.2" stroke-linecap="round"/>
<path d="M8.47413 7.55451C8.47413 6.72842 9.1439 6.05862 9.97027 6.05862C10.7966 6.05862 11.4664 6.72842 11.4664 7.55451C11.4664 8.38059 10.7966 9.05039 9.97027 9.05039C9.14391 9.05039 8.47413 8.38059 8.47413 7.55451Z" stroke="#5D5D5A" stroke-width="1.2" stroke-linecap="round"/>
<path d="M2.96632 2.09772C2.96632 1.27163 3.63609 0.601835 4.46246 0.601834C5.28882 0.601834 5.95859 1.27163 5.95859 2.09772C5.95859 2.9238 5.28882 3.5936 4.46246 3.5936C3.63609 3.5936 2.96632 2.92381 2.96632 2.09772Z" stroke="#5D5D5A" stroke-width="1.2" stroke-linecap="round"/>
<path d="M3.05709 12.8924C3.05709 12.0598 3.73213 11.3848 4.56497 11.3848C5.39782 11.3848 6.07285 12.0598 6.07285 12.8924C6.07285 13.7249 5.39782 14.4 4.56497 14.4C3.73213 14.4 3.05709 13.7249 3.05709 12.8924Z" stroke="#5D5D5A" stroke-width="1.2" stroke-linecap="round"/>
</svg>
