<svg width="29" height="29" viewBox="0 0 29 29" fill="none" xmlns="http://www.w3.org/2000/svg">
<circle cx="14.5" cy="14.5" r="13.5" stroke="#2D2D2D" stroke-width="1.5"/>
<path d="M16.5924 14.5921L16.5925 14.5921L16.5933 14.5912C17.3611 13.873 17.7493 13.0253 17.7493 12.052V11.1816C17.7493 10.0776 17.4671 9.21534 16.8881 8.6107C16.3102 7.98303 15.5326 7.67246 14.5666 7.67246H13.5874C12.6443 7.67246 11.8788 7.98384 11.3014 8.61144L11.3013 8.61158C10.747 9.21634 10.4771 10.0782 10.4771 11.1816V12.3059C10.4771 12.5077 10.5113 12.6767 10.5945 12.7978C10.6823 12.9256 10.8153 12.9862 10.9761 12.9862H11.3025C11.472 12.9862 11.6136 12.9282 11.7089 12.8011C11.8001 12.6795 11.8377 12.5089 11.8377 12.3059V11.2179C11.8377 10.5167 11.9895 10.0096 12.2758 9.67843C12.5596 9.35009 12.9903 9.17809 13.5874 9.17809H14.5666C15.189 9.17809 15.6382 9.35081 15.9338 9.67987C16.2312 10.011 16.3888 10.5175 16.3888 11.2179V12.0158C16.3888 12.3171 16.3309 12.5794 16.218 12.8052L16.2177 12.805L16.2146 12.8128C16.1249 13.0368 15.9419 13.2916 15.6564 13.5771L14.7135 14.52C14.3682 14.8653 14.0956 15.2366 13.8969 15.6341L13.8965 15.6339L13.8931 15.6425C13.7177 16.0936 13.6324 16.6754 13.6324 17.3834V18.1812C13.6324 18.3231 13.6752 18.4615 13.7555 18.5954C13.85 18.7528 14.0078 18.8253 14.2039 18.8253H14.4578C14.6267 18.8253 14.7679 18.7676 14.8632 18.6415C14.9725 18.5044 15.0293 18.3501 15.0293 18.1812V17.2746V17.2727V17.2709V17.269V17.2672V17.2654V17.2635V17.2617V17.2599V17.258V17.2562V17.2544V17.2526V17.2508V17.2489V17.2471V17.2453V17.2435V17.2417V17.2399V17.2381V17.2362V17.2344V17.2326V17.2308V17.229V17.2272V17.2254V17.2236V17.2218V17.22V17.2183V17.2165V17.2147V17.2129V17.2111V17.2093V17.2075V17.2058V17.204V17.2022V17.2004V17.1987V17.1969V17.1951V17.1934V17.1916V17.1898V17.1881V17.1863V17.1845V17.1828V17.181V17.1793V17.1775V17.1758V17.174V17.1723V17.1705V17.1688V17.167V17.1653V17.1636V17.1618V17.1601V17.1583V17.1566V17.1549V17.1532V17.1514V17.1497V17.148V17.1463V17.1445V17.1428V17.1411V17.1394V17.1377V17.1359V17.1342V17.1325V17.1308V17.1291V17.1274V17.1257V17.124V17.1223V17.1206V17.1189V17.1172V17.1155V17.1138V17.1121V17.1105V17.1088V17.1071V17.1054V17.1037V17.102V17.1004V17.0987V17.097V17.0953V17.0937V17.092V17.0903V17.0887V17.087V17.0853V17.0837V17.082V17.0803V17.0787V17.077V17.0754V17.0737V17.0721V17.0704V17.0688V17.0671V17.0655V17.0639V17.0622V17.0606V17.0589V17.0573V17.0557V17.054V17.0524V17.0508V17.0492V17.0475V17.0459V17.0443V17.0427V17.041V17.0394V17.0378V17.0362V17.0346V17.033V17.0314V17.0298V17.0282V17.0266V17.025V17.0234V17.0218V17.0202V17.0186V17.017V17.0154V17.0138V17.0122V17.0106V17.009V17.0074V17.0059V17.0043V17.0027V17.0011V16.9996V16.998V16.9964V16.9948V16.9933V16.9917V16.9901V16.9886V16.987V16.9855V16.9839V16.9823V16.9808V16.9792V16.9777V16.9761V16.9746V16.973V16.9715V16.9699V16.9684V16.9669V16.9653V16.9638V16.9622V16.9607V16.9592V16.9576V16.9561V16.9546V16.9531V16.9515V16.95V16.9485V16.947V16.9455V16.9439V16.9424V16.9409V16.9394V16.9379V16.9364V16.9349V16.9334V16.9319V16.9304V16.9289V16.9274V16.9259V16.9244V16.9229V16.9214V16.9199V16.9184V16.917V16.9155V16.914V16.9125V16.911V16.9096V16.9081V16.9066V16.9051V16.9037V16.9022V16.9007V16.8993V16.8978V16.8963V16.8949V16.8934V16.892V16.8905V16.889V16.8876V16.8861V16.8847V16.8832V16.8818V16.8804V16.8789V16.8775V16.876V16.8746V16.8732V16.8717V16.8703V16.8689V16.8674V16.866V16.8646V16.8632V16.8617V16.8603V16.8589V16.8575V16.8561V16.8546V16.8532V16.8518V16.8504V16.849V16.8476V16.8462V16.8448V16.8434V16.842V16.8406V16.8392V16.8378V16.8364V16.835V16.8336V16.8322V16.8309V16.8295V16.8281V16.8267V16.8253V16.824V16.8226V16.8212V16.8198V16.8185V16.8171V16.8157V16.8144V16.813V16.8116V16.8103V16.8089V16.8075V16.8062V16.8048V16.8035V16.8021V16.8008V16.7994V16.7981V16.7967V16.7954V16.7941V16.7927V16.7914V16.79V16.7887V16.7874V16.7861V16.7847V16.7834V16.7821V16.7807V16.7794V16.7781V16.7768V16.7755V16.7741V16.7728V16.7715V16.7702V16.7689V16.7676V16.7663V16.765V16.7637V16.7624V16.7611V16.7598V16.7585V16.7572V16.7559V16.7546V16.7533V16.752V16.7507V16.7495V16.7482V16.7469V16.7456V16.7443V16.7431V16.7418V16.7405V16.7392V16.738V16.7367V16.7354V16.7342V16.7329V16.7316V16.7304V16.7291V16.7279V16.7266V16.7254V16.7241V16.7229V16.7216V16.7204V16.7191V16.7179V16.7166V16.7154V16.7142V16.7129V16.7117V16.7104V16.7092V16.708V16.7068V16.7055V16.7043V16.7031V16.7019V16.7006V16.6994V16.6982V16.697V16.6958V16.6946V16.6934V16.6921V16.6909V16.6897V16.6885V16.6873V16.6861V16.6849V16.6837V16.6825V16.6813V16.6802V16.679V16.6778V16.6766V16.6754V16.6742V16.673V16.6719V16.6707V16.6695V16.6683V16.6672V16.666V16.6648V16.6636V16.6625V16.6613V16.6602V16.659V16.6578V16.6567V16.6555V16.6544V16.6532V16.6521V16.6509V16.6498V16.6486V16.6475V16.6463V16.6452V16.644V16.6429V16.6418V16.6406V16.6395V16.6384V16.6372V16.6361V16.635V16.6338V16.6327V16.6316V16.6305V16.6294V16.6282V16.6271V16.626V16.6249V16.6238V16.6227V16.6216V16.6205V16.6194V16.6183V16.6172V16.6161V16.615V16.6139V16.6128V16.6117V16.6106V16.6095V16.6084V16.6073V16.6063V16.6052V16.6041V16.603V16.6019V16.6009V16.5998V16.5987V16.5976V16.5966V16.5955V16.5944V16.5934V16.5923V16.5913V16.5902V16.5891V16.5881V16.587V16.586V16.5849V16.5839V16.5828V16.5818V16.5807V16.5797V16.5787V16.5776V16.5766V16.5755V16.5745V16.5735V16.5724V16.5714V16.5704V16.5694V16.5683V16.5673V16.5663V16.5653V16.5643V16.5632V16.5622V16.5612V16.5602V16.5592V16.5582V16.5572V16.5562V16.5552V16.5542V16.5532V16.5522V16.5512V16.5502V16.5492C15.0293 16.3858 15.1125 16.1645 15.3026 15.8793C15.3467 15.8131 15.4028 15.7456 15.4714 15.677L15.4765 15.6719L15.4807 15.6662C15.5492 15.5749 15.6419 15.4703 15.76 15.3522L16.5924 14.5921Z" fill="#2D2D2D" stroke="#2D2D2D" stroke-width="0.2"/>
<rect x="13.7877" y="20.1119" width="1.22127" height="2.05018" rx="0.610634" fill="#2D2D2D" stroke="#2D2D2D" stroke-width="0.2"/>
</svg>
