<svg width="537" height="37" viewBox="0 0 537 37" fill="none" xmlns="http://www.w3.org/2000/svg">
<rect y="2" width="175" height="34" rx="17" fill="#4B70F1" fill-opacity="0.1"/>
<g opacity="0.8">
<path d="M160.335 13.4351C160.026 13.1268 159.526 13.1268 159.218 13.4351L155.385 17.2684L151.551 13.4351C151.243 13.1268 150.743 13.1268 150.435 13.4351C150.127 13.7434 150.127 14.2433 150.435 14.5516L154.268 18.3849L150.435 22.2181C150.127 22.5264 150.127 23.0263 150.435 23.3346C150.743 23.6429 151.243 23.6429 151.552 23.3346L155.385 19.5013L159.218 23.3346C159.526 23.6429 160.026 23.6429 160.334 23.3346C160.643 23.0263 160.643 22.5264 160.334 22.2181L156.501 18.3849L160.335 14.5516C160.643 14.2433 160.643 13.7434 160.335 13.4351Z" fill="#5D5D5A"/>
</g>
<circle cx="17.5" cy="18.5" r="12.5" fill="#D9D9D9"/>
<path d="M44.7305 19.7051C44.7305 20.3652 44.6465 20.9668 44.4785 21.5098C44.3145 22.0488 44.0664 22.5137 43.7344 22.9043C43.4023 23.291 42.9863 23.5898 42.4863 23.8008C41.9863 24.0117 41.4004 24.1172 40.7285 24.1172C40.0449 24.1172 39.4512 24.0117 38.9473 23.8008C38.4473 23.5898 38.0312 23.2891 37.6992 22.8984C37.3711 22.5078 37.125 22.041 36.9609 21.498C36.7969 20.9551 36.7148 20.3535 36.7148 19.6934C36.7148 18.8105 36.8594 18.041 37.1484 17.3848C37.4414 16.7246 37.8848 16.2129 38.4785 15.8496C39.0762 15.4824 39.8301 15.2988 40.7402 15.2988C41.6309 15.2988 42.3711 15.4805 42.9609 15.8438C43.5508 16.207 43.9922 16.7188 44.2852 17.3789C44.582 18.0352 44.7305 18.8105 44.7305 19.7051ZM38.1914 19.7051C38.1914 20.3652 38.2812 20.9375 38.4609 21.4219C38.6406 21.9023 38.916 22.2734 39.2871 22.5352C39.6621 22.793 40.1426 22.9219 40.7285 22.9219C41.3184 22.9219 41.7988 22.793 42.1699 22.5352C42.541 22.2734 42.8145 21.9023 42.9902 21.4219C43.166 20.9375 43.2539 20.3652 43.2539 19.7051C43.2539 18.7012 43.0527 17.916 42.6504 17.3496C42.252 16.7793 41.6152 16.4941 40.7402 16.4941C40.1543 16.4941 39.6719 16.623 39.293 16.8809C38.918 17.1387 38.6406 17.5078 38.4609 17.9883C38.2812 18.4648 38.1914 19.0371 38.1914 19.7051ZM49.043 24.1172C48.4297 24.1172 47.8984 23.998 47.4492 23.7598C47 23.5215 46.6543 23.1562 46.4121 22.6641C46.1699 22.1719 46.0488 21.5469 46.0488 20.7891C46.0488 20 46.1816 19.3555 46.4473 18.8555C46.7129 18.3555 47.0801 17.9863 47.5488 17.748C48.0215 17.5098 48.5625 17.3906 49.1719 17.3906C49.5586 17.3906 49.9082 17.4297 50.2207 17.5078C50.5371 17.582 50.8047 17.6738 51.0234 17.7832L50.6133 18.8848C50.375 18.7871 50.1309 18.7051 49.8809 18.6387C49.6309 18.5723 49.3906 18.5391 49.1602 18.5391C48.7812 18.5391 48.4648 18.623 48.2109 18.791C47.9609 18.959 47.7734 19.209 47.6484 19.541C47.5273 19.873 47.4668 20.2852 47.4668 20.7773C47.4668 21.2539 47.5293 21.6562 47.6543 21.9844C47.7793 22.3086 47.9648 22.5547 48.2109 22.7227C48.457 22.8867 48.7598 22.9688 49.1191 22.9688C49.4746 22.9688 49.793 22.9258 50.0742 22.8398C50.3555 22.7539 50.6211 22.6426 50.8711 22.5059V23.7012C50.625 23.8418 50.3613 23.9453 50.0801 24.0117C49.7988 24.082 49.4531 24.1172 49.043 24.1172ZM54.9785 17.3906C55.5566 17.3906 56.0527 17.5098 56.4668 17.748C56.8809 17.9863 57.1992 18.3242 57.4219 18.7617C57.6445 19.1992 57.7559 19.7227 57.7559 20.332V21.0703H53.4258C53.4414 21.6992 53.6094 22.1836 53.9297 22.5234C54.2539 22.8633 54.707 23.0332 55.2891 23.0332C55.7031 23.0332 56.0742 22.9941 56.4023 22.916C56.7344 22.834 57.0762 22.7148 57.4277 22.5586V23.6777C57.1035 23.8301 56.7734 23.9414 56.4375 24.0117C56.1016 24.082 55.6992 24.1172 55.2305 24.1172C54.5938 24.1172 54.0332 23.9941 53.5488 23.748C53.0684 23.498 52.6914 23.127 52.418 22.6348C52.1484 22.1426 52.0137 21.5312 52.0137 20.8008C52.0137 20.0742 52.1367 19.457 52.3828 18.9492C52.6289 18.4414 52.9746 18.0547 53.4199 17.7891C53.8652 17.5234 54.3848 17.3906 54.9785 17.3906ZM54.9785 18.4277C54.5449 18.4277 54.1934 18.5684 53.9238 18.8496C53.6582 19.1309 53.502 19.543 53.4551 20.0859H56.4082C56.4043 19.7617 56.3496 19.4746 56.2441 19.2246C56.1426 18.9746 55.9863 18.7793 55.7754 18.6387C55.5684 18.498 55.3027 18.4277 54.9785 18.4277ZM61.8516 17.3906C62.6719 17.3906 63.291 17.5723 63.709 17.9355C64.1309 18.2988 64.3418 18.8652 64.3418 19.6348V24H63.3633L63.0996 23.0801H63.0527C62.8691 23.3145 62.6797 23.5078 62.4844 23.6602C62.2891 23.8125 62.0625 23.9258 61.8047 24C61.5508 24.0781 61.2402 24.1172 60.873 24.1172C60.4863 24.1172 60.1406 24.0469 59.8359 23.9062C59.5312 23.7617 59.291 23.543 59.1152 23.25C58.9395 22.957 58.8516 22.5859 58.8516 22.1367C58.8516 21.4688 59.0996 20.9668 59.5957 20.6309C60.0957 20.2949 60.8496 20.1094 61.8574 20.0742L62.9824 20.0332V19.6934C62.9824 19.2441 62.877 18.9238 62.666 18.7324C62.459 18.541 62.166 18.4453 61.7871 18.4453C61.4629 18.4453 61.1484 18.4922 60.8438 18.5859C60.5391 18.6797 60.2422 18.7949 59.9531 18.9316L59.5078 17.959C59.8242 17.791 60.1836 17.6543 60.5859 17.5488C60.9922 17.4434 61.4141 17.3906 61.8516 17.3906ZM62.9766 20.9004L62.1387 20.9297C61.4512 20.9531 60.9688 21.0703 60.6914 21.2812C60.4141 21.4922 60.2754 21.7812 60.2754 22.1484C60.2754 22.4688 60.3711 22.7031 60.5625 22.8516C60.7539 22.9961 61.0059 23.0684 61.3184 23.0684C61.7949 23.0684 62.1895 22.9336 62.502 22.6641C62.8184 22.3906 62.9766 21.9902 62.9766 21.4629V20.9004ZM69.6504 17.3906C70.3809 17.3906 70.9492 17.5801 71.3555 17.959C71.7656 18.334 71.9707 18.9375 71.9707 19.7695V24H70.5938V20.0273C70.5938 19.5234 70.4902 19.1465 70.2832 18.8965C70.0762 18.6426 69.7559 18.5156 69.3223 18.5156C68.6934 18.5156 68.2559 18.709 68.0098 19.0957C67.7676 19.4824 67.6465 20.043 67.6465 20.7773V24H66.2695V17.5137H67.3418L67.5352 18.3926H67.6113C67.752 18.166 67.9258 17.9805 68.1328 17.8359C68.3438 17.6875 68.5781 17.5762 68.8359 17.502C69.0977 17.4277 69.3691 17.3906 69.6504 17.3906ZM80.8066 16.5059C80.3965 16.5059 80.0293 16.5801 79.7051 16.7285C79.3848 16.877 79.1133 17.0918 78.8906 17.373C78.668 17.6504 78.498 17.9883 78.3809 18.3867C78.2637 18.7812 78.2051 19.2266 78.2051 19.7227C78.2051 20.3867 78.2988 20.959 78.4863 21.4395C78.6738 21.916 78.959 22.2832 79.3418 22.541C79.7246 22.7949 80.209 22.9219 80.7949 22.9219C81.1582 22.9219 81.5117 22.8867 81.8555 22.8164C82.1992 22.7461 82.5547 22.6504 82.9219 22.5293V23.7246C82.5742 23.8613 82.2227 23.9609 81.8672 24.0234C81.5117 24.0859 81.1016 24.1172 80.6367 24.1172C79.7617 24.1172 79.0352 23.9355 78.457 23.5723C77.8828 23.209 77.4531 22.6973 77.168 22.0371C76.8867 21.377 76.7461 20.6035 76.7461 19.7168C76.7461 19.0684 76.8359 18.4746 77.0156 17.9355C77.1953 17.3965 77.457 16.9316 77.8008 16.541C78.1445 16.1465 78.5684 15.8438 79.0723 15.6328C79.5801 15.418 80.1602 15.3105 80.8125 15.3105C81.2422 15.3105 81.6641 15.3594 82.0781 15.457C82.4961 15.5508 82.8828 15.6855 83.2383 15.8613L82.7461 17.0215C82.4492 16.8809 82.1387 16.7598 81.8145 16.6582C81.4902 16.5566 81.1543 16.5059 80.8066 16.5059ZM87.1641 17.3906C87.9844 17.3906 88.6035 17.5723 89.0215 17.9355C89.4434 18.2988 89.6543 18.8652 89.6543 19.6348V24H88.6758L88.4121 23.0801H88.3652C88.1816 23.3145 87.9922 23.5078 87.7969 23.6602C87.6016 23.8125 87.375 23.9258 87.1172 24C86.8633 24.0781 86.5527 24.1172 86.1855 24.1172C85.7988 24.1172 85.4531 24.0469 85.1484 23.9062C84.8438 23.7617 84.6035 23.543 84.4277 23.25C84.252 22.957 84.1641 22.5859 84.1641 22.1367C84.1641 21.4688 84.4121 20.9668 84.9082 20.6309C85.4082 20.2949 86.1621 20.1094 87.1699 20.0742L88.2949 20.0332V19.6934C88.2949 19.2441 88.1895 18.9238 87.9785 18.7324C87.7715 18.541 87.4785 18.4453 87.0996 18.4453C86.7754 18.4453 86.4609 18.4922 86.1562 18.5859C85.8516 18.6797 85.5547 18.7949 85.2656 18.9316L84.8203 17.959C85.1367 17.791 85.4961 17.6543 85.8984 17.5488C86.3047 17.4434 86.7266 17.3906 87.1641 17.3906ZM88.2891 20.9004L87.4512 20.9297C86.7637 20.9531 86.2812 21.0703 86.0039 21.2812C85.7266 21.4922 85.5879 21.7812 85.5879 22.1484C85.5879 22.4688 85.6836 22.7031 85.875 22.8516C86.0664 22.9961 86.3184 23.0684 86.6309 23.0684C87.1074 23.0684 87.502 22.9336 87.8145 22.6641C88.1309 22.3906 88.2891 21.9902 88.2891 21.4629V20.9004ZM92.959 14.8828V19.2891C92.959 19.4883 92.9512 19.707 92.9355 19.9453C92.9199 20.1797 92.9043 20.4004 92.8887 20.6074H92.918C93.0195 20.4707 93.1406 20.3105 93.2812 20.127C93.4258 19.9434 93.5625 19.7832 93.6914 19.6465L95.6719 17.5137H97.2539L94.6582 20.3027L97.4238 24H95.8066L93.7324 21.1523L92.959 21.8145V24H91.582V14.8828H92.959ZM101.045 17.3906C101.623 17.3906 102.119 17.5098 102.533 17.748C102.947 17.9863 103.266 18.3242 103.488 18.7617C103.711 19.1992 103.822 19.7227 103.822 20.332V21.0703H99.4922C99.5078 21.6992 99.6758 22.1836 99.9961 22.5234C100.32 22.8633 100.773 23.0332 101.355 23.0332C101.77 23.0332 102.141 22.9941 102.469 22.916C102.801 22.834 103.143 22.7148 103.494 22.5586V23.6777C103.17 23.8301 102.84 23.9414 102.504 24.0117C102.168 24.082 101.766 24.1172 101.297 24.1172C100.66 24.1172 100.1 23.9941 99.6152 23.748C99.1348 23.498 98.7578 23.127 98.4844 22.6348C98.2148 22.1426 98.0801 21.5312 98.0801 20.8008C98.0801 20.0742 98.2031 19.457 98.4492 18.9492C98.6953 18.4414 99.041 18.0547 99.4863 17.7891C99.9316 17.5234 100.451 17.3906 101.045 17.3906ZM101.045 18.4277C100.611 18.4277 100.26 18.5684 99.9902 18.8496C99.7246 19.1309 99.5684 19.543 99.5215 20.0859H102.475C102.471 19.7617 102.416 19.4746 102.311 19.2246C102.209 18.9746 102.053 18.7793 101.842 18.6387C101.635 18.498 101.369 18.4277 101.045 18.4277ZM109.734 22.1484C109.734 22.5742 109.631 22.9336 109.424 23.2266C109.217 23.5195 108.914 23.7422 108.516 23.8945C108.121 24.043 107.637 24.1172 107.062 24.1172C106.609 24.1172 106.219 24.084 105.891 24.0176C105.566 23.9551 105.26 23.8574 104.971 23.7246V22.5352C105.279 22.6797 105.625 22.8047 106.008 22.9102C106.395 23.0156 106.76 23.0684 107.104 23.0684C107.557 23.0684 107.883 22.998 108.082 22.8574C108.281 22.7129 108.381 22.5215 108.381 22.2832C108.381 22.1426 108.34 22.0176 108.258 21.9082C108.18 21.7949 108.031 21.6797 107.812 21.5625C107.598 21.4414 107.281 21.2969 106.863 21.1289C106.453 20.9648 106.107 20.8008 105.826 20.6367C105.545 20.4727 105.332 20.2754 105.188 20.0449C105.043 19.8105 104.971 19.5117 104.971 19.1484C104.971 18.5742 105.197 18.1387 105.65 17.8418C106.107 17.541 106.711 17.3906 107.461 17.3906C107.859 17.3906 108.234 17.4316 108.586 17.5137C108.941 17.5918 109.289 17.707 109.629 17.8594L109.195 18.8965C108.902 18.7676 108.607 18.6621 108.311 18.5801C108.018 18.4941 107.719 18.4512 107.414 18.4512C107.059 18.4512 106.787 18.5059 106.6 18.6152C106.416 18.7246 106.324 18.8809 106.324 19.084C106.324 19.2363 106.369 19.3652 106.459 19.4707C106.549 19.5762 106.703 19.6816 106.922 19.7871C107.145 19.8926 107.453 20.0234 107.848 20.1797C108.234 20.3281 108.568 20.4844 108.85 20.6484C109.135 20.8086 109.354 21.0059 109.506 21.2402C109.658 21.4746 109.734 21.7773 109.734 22.1484Z" fill="#616161"/>
<path d="M17.168 19.1367C17.168 19.5768 17.1133 19.9779 17.0039 20.3398C16.8945 20.6992 16.7279 21.0091 16.5039 21.2695C16.2826 21.5299 16.0013 21.7305 15.6602 21.8711C15.319 22.0091 14.9154 22.0781 14.4492 22.0781C13.9831 22.0781 13.5794 22.0091 13.2383 21.8711C12.8971 21.7305 12.6146 21.5299 12.3906 21.2695C12.1693 21.0091 12.0039 20.6979 11.8945 20.3359C11.7852 19.974 11.7305 19.5716 11.7305 19.1289C11.7305 18.5378 11.8268 18.0234 12.0195 17.5859C12.2148 17.1458 12.5143 16.8047 12.918 16.5625C13.3216 16.3203 13.8346 16.1992 14.457 16.1992C15.0768 16.1992 15.5859 16.3203 15.9844 16.5625C16.3854 16.8047 16.6823 17.1458 16.875 17.5859C17.0703 18.026 17.168 18.543 17.168 19.1367ZM13 19.1367C13 19.5352 13.0495 19.8789 13.1484 20.168C13.25 20.4544 13.4076 20.6758 13.6211 20.832C13.8346 20.9857 14.1107 21.0625 14.4492 21.0625C14.793 21.0625 15.0716 20.9857 15.2852 20.832C15.4987 20.6758 15.6536 20.4544 15.75 20.168C15.849 19.8789 15.8984 19.5352 15.8984 19.1367C15.8984 18.5378 15.7865 18.0664 15.5625 17.7227C15.3385 17.3789 14.9701 17.207 14.457 17.207C14.1159 17.207 13.8372 17.2852 13.6211 17.4414C13.4076 17.5951 13.25 17.8164 13.1484 18.1055C13.0495 18.3919 13 18.7357 13 19.1367ZM20.7773 17.2148C20.5456 17.2148 20.3398 17.2604 20.1602 17.3516C19.9831 17.4401 19.8333 17.569 19.7109 17.7383C19.5911 17.9076 19.5 18.112 19.4375 18.3516C19.375 18.5911 19.3438 18.8607 19.3438 19.1602C19.3438 19.5638 19.3932 19.9089 19.4922 20.1953C19.5938 20.4792 19.75 20.6966 19.9609 20.8477C20.1719 20.9961 20.444 21.0703 20.7773 21.0703C21.0091 21.0703 21.2409 21.0443 21.4727 20.9922C21.707 20.9401 21.9609 20.8659 22.2344 20.7695V21.7852C21.9818 21.8893 21.7331 21.9635 21.4883 22.0078C21.2435 22.0547 20.9688 22.0781 20.6641 22.0781C20.0755 22.0781 19.5911 21.957 19.2109 21.7148C18.8333 21.4701 18.5534 21.1289 18.3711 20.6914C18.1888 20.2513 18.0977 19.7383 18.0977 19.1523C18.0977 18.7201 18.1562 18.3242 18.2734 17.9648C18.3906 17.6055 18.5625 17.2943 18.7891 17.0312C19.0156 16.7682 19.2956 16.5651 19.6289 16.4219C19.9622 16.2786 20.3451 16.207 20.7773 16.207C21.0612 16.207 21.3451 16.2435 21.6289 16.3164C21.9154 16.3867 22.1888 16.4844 22.4492 16.6094L22.0586 17.5938C21.8451 17.4922 21.6302 17.4036 21.4141 17.3281C21.1979 17.2526 20.9857 17.2148 20.7773 17.2148Z" fill="#A2A49B"/>
<rect x="181" y="2" width="175" height="34" rx="17" fill="#4B70F1" fill-opacity="0.1"/>
<g opacity="0.8">
<path d="M341.335 13.4351C341.026 13.1268 340.526 13.1268 340.218 13.4351L336.385 17.2684L332.551 13.4351C332.243 13.1268 331.743 13.1268 331.435 13.4351C331.127 13.7434 331.127 14.2433 331.435 14.5516L335.268 18.3849L331.435 22.2181C331.127 22.5264 331.127 23.0263 331.435 23.3346C331.743 23.6429 332.243 23.6429 332.552 23.3346L336.385 19.5013L340.218 23.3346C340.526 23.6429 341.026 23.6429 341.334 23.3346C341.643 23.0263 341.643 22.5264 341.334 22.2181L337.501 18.3849L341.335 14.5516C341.643 14.2433 341.643 13.7434 341.335 13.4351Z" fill="#5D5D5A"/>
</g>
<circle cx="198.5" cy="18.5" r="12.5" fill="#D9D9D9"/>
<path d="M225.73 19.7051C225.73 20.3652 225.646 20.9668 225.479 21.5098C225.314 22.0488 225.066 22.5137 224.734 22.9043C224.402 23.291 223.986 23.5898 223.486 23.8008C222.986 24.0117 222.4 24.1172 221.729 24.1172C221.045 24.1172 220.451 24.0117 219.947 23.8008C219.447 23.5898 219.031 23.2891 218.699 22.8984C218.371 22.5078 218.125 22.041 217.961 21.498C217.797 20.9551 217.715 20.3535 217.715 19.6934C217.715 18.8105 217.859 18.041 218.148 17.3848C218.441 16.7246 218.885 16.2129 219.479 15.8496C220.076 15.4824 220.83 15.2988 221.74 15.2988C222.631 15.2988 223.371 15.4805 223.961 15.8438C224.551 16.207 224.992 16.7188 225.285 17.3789C225.582 18.0352 225.73 18.8105 225.73 19.7051ZM219.191 19.7051C219.191 20.3652 219.281 20.9375 219.461 21.4219C219.641 21.9023 219.916 22.2734 220.287 22.5352C220.662 22.793 221.143 22.9219 221.729 22.9219C222.318 22.9219 222.799 22.793 223.17 22.5352C223.541 22.2734 223.814 21.9023 223.99 21.4219C224.166 20.9375 224.254 20.3652 224.254 19.7051C224.254 18.7012 224.053 17.916 223.65 17.3496C223.252 16.7793 222.615 16.4941 221.74 16.4941C221.154 16.4941 220.672 16.623 220.293 16.8809C219.918 17.1387 219.641 17.5078 219.461 17.9883C219.281 18.4648 219.191 19.0371 219.191 19.7051ZM230.043 24.1172C229.43 24.1172 228.898 23.998 228.449 23.7598C228 23.5215 227.654 23.1562 227.412 22.6641C227.17 22.1719 227.049 21.5469 227.049 20.7891C227.049 20 227.182 19.3555 227.447 18.8555C227.713 18.3555 228.08 17.9863 228.549 17.748C229.021 17.5098 229.562 17.3906 230.172 17.3906C230.559 17.3906 230.908 17.4297 231.221 17.5078C231.537 17.582 231.805 17.6738 232.023 17.7832L231.613 18.8848C231.375 18.7871 231.131 18.7051 230.881 18.6387C230.631 18.5723 230.391 18.5391 230.16 18.5391C229.781 18.5391 229.465 18.623 229.211 18.791C228.961 18.959 228.773 19.209 228.648 19.541C228.527 19.873 228.467 20.2852 228.467 20.7773C228.467 21.2539 228.529 21.6562 228.654 21.9844C228.779 22.3086 228.965 22.5547 229.211 22.7227C229.457 22.8867 229.76 22.9688 230.119 22.9688C230.475 22.9688 230.793 22.9258 231.074 22.8398C231.355 22.7539 231.621 22.6426 231.871 22.5059V23.7012C231.625 23.8418 231.361 23.9453 231.08 24.0117C230.799 24.082 230.453 24.1172 230.043 24.1172ZM235.979 17.3906C236.557 17.3906 237.053 17.5098 237.467 17.748C237.881 17.9863 238.199 18.3242 238.422 18.7617C238.645 19.1992 238.756 19.7227 238.756 20.332V21.0703H234.426C234.441 21.6992 234.609 22.1836 234.93 22.5234C235.254 22.8633 235.707 23.0332 236.289 23.0332C236.703 23.0332 237.074 22.9941 237.402 22.916C237.734 22.834 238.076 22.7148 238.428 22.5586V23.6777C238.104 23.8301 237.773 23.9414 237.438 24.0117C237.102 24.082 236.699 24.1172 236.23 24.1172C235.594 24.1172 235.033 23.9941 234.549 23.748C234.068 23.498 233.691 23.127 233.418 22.6348C233.148 22.1426 233.014 21.5312 233.014 20.8008C233.014 20.0742 233.137 19.457 233.383 18.9492C233.629 18.4414 233.975 18.0547 234.42 17.7891C234.865 17.5234 235.385 17.3906 235.979 17.3906ZM235.979 18.4277C235.545 18.4277 235.193 18.5684 234.924 18.8496C234.658 19.1309 234.502 19.543 234.455 20.0859H237.408C237.404 19.7617 237.35 19.4746 237.244 19.2246C237.143 18.9746 236.986 18.7793 236.775 18.6387C236.568 18.498 236.303 18.4277 235.979 18.4277ZM242.852 17.3906C243.672 17.3906 244.291 17.5723 244.709 17.9355C245.131 18.2988 245.342 18.8652 245.342 19.6348V24H244.363L244.1 23.0801H244.053C243.869 23.3145 243.68 23.5078 243.484 23.6602C243.289 23.8125 243.062 23.9258 242.805 24C242.551 24.0781 242.24 24.1172 241.873 24.1172C241.486 24.1172 241.141 24.0469 240.836 23.9062C240.531 23.7617 240.291 23.543 240.115 23.25C239.939 22.957 239.852 22.5859 239.852 22.1367C239.852 21.4688 240.1 20.9668 240.596 20.6309C241.096 20.2949 241.85 20.1094 242.857 20.0742L243.982 20.0332V19.6934C243.982 19.2441 243.877 18.9238 243.666 18.7324C243.459 18.541 243.166 18.4453 242.787 18.4453C242.463 18.4453 242.148 18.4922 241.844 18.5859C241.539 18.6797 241.242 18.7949 240.953 18.9316L240.508 17.959C240.824 17.791 241.184 17.6543 241.586 17.5488C241.992 17.4434 242.414 17.3906 242.852 17.3906ZM243.977 20.9004L243.139 20.9297C242.451 20.9531 241.969 21.0703 241.691 21.2812C241.414 21.4922 241.275 21.7812 241.275 22.1484C241.275 22.4688 241.371 22.7031 241.562 22.8516C241.754 22.9961 242.006 23.0684 242.318 23.0684C242.795 23.0684 243.189 22.9336 243.502 22.6641C243.818 22.3906 243.977 21.9902 243.977 21.4629V20.9004ZM250.65 17.3906C251.381 17.3906 251.949 17.5801 252.355 17.959C252.766 18.334 252.971 18.9375 252.971 19.7695V24H251.594V20.0273C251.594 19.5234 251.49 19.1465 251.283 18.8965C251.076 18.6426 250.756 18.5156 250.322 18.5156C249.693 18.5156 249.256 18.709 249.01 19.0957C248.768 19.4824 248.646 20.043 248.646 20.7773V24H247.27V17.5137H248.342L248.535 18.3926H248.611C248.752 18.166 248.926 17.9805 249.133 17.8359C249.344 17.6875 249.578 17.5762 249.836 17.502C250.098 17.4277 250.369 17.3906 250.65 17.3906ZM261.807 16.5059C261.396 16.5059 261.029 16.5801 260.705 16.7285C260.385 16.877 260.113 17.0918 259.891 17.373C259.668 17.6504 259.498 17.9883 259.381 18.3867C259.264 18.7812 259.205 19.2266 259.205 19.7227C259.205 20.3867 259.299 20.959 259.486 21.4395C259.674 21.916 259.959 22.2832 260.342 22.541C260.725 22.7949 261.209 22.9219 261.795 22.9219C262.158 22.9219 262.512 22.8867 262.855 22.8164C263.199 22.7461 263.555 22.6504 263.922 22.5293V23.7246C263.574 23.8613 263.223 23.9609 262.867 24.0234C262.512 24.0859 262.102 24.1172 261.637 24.1172C260.762 24.1172 260.035 23.9355 259.457 23.5723C258.883 23.209 258.453 22.6973 258.168 22.0371C257.887 21.377 257.746 20.6035 257.746 19.7168C257.746 19.0684 257.836 18.4746 258.016 17.9355C258.195 17.3965 258.457 16.9316 258.801 16.541C259.145 16.1465 259.568 15.8438 260.072 15.6328C260.58 15.418 261.16 15.3105 261.812 15.3105C262.242 15.3105 262.664 15.3594 263.078 15.457C263.496 15.5508 263.883 15.6855 264.238 15.8613L263.746 17.0215C263.449 16.8809 263.139 16.7598 262.814 16.6582C262.49 16.5566 262.154 16.5059 261.807 16.5059ZM268.164 17.3906C268.984 17.3906 269.604 17.5723 270.021 17.9355C270.443 18.2988 270.654 18.8652 270.654 19.6348V24H269.676L269.412 23.0801H269.365C269.182 23.3145 268.992 23.5078 268.797 23.6602C268.602 23.8125 268.375 23.9258 268.117 24C267.863 24.0781 267.553 24.1172 267.186 24.1172C266.799 24.1172 266.453 24.0469 266.148 23.9062C265.844 23.7617 265.604 23.543 265.428 23.25C265.252 22.957 265.164 22.5859 265.164 22.1367C265.164 21.4688 265.412 20.9668 265.908 20.6309C266.408 20.2949 267.162 20.1094 268.17 20.0742L269.295 20.0332V19.6934C269.295 19.2441 269.189 18.9238 268.979 18.7324C268.771 18.541 268.479 18.4453 268.1 18.4453C267.775 18.4453 267.461 18.4922 267.156 18.5859C266.852 18.6797 266.555 18.7949 266.266 18.9316L265.82 17.959C266.137 17.791 266.496 17.6543 266.898 17.5488C267.305 17.4434 267.727 17.3906 268.164 17.3906ZM269.289 20.9004L268.451 20.9297C267.764 20.9531 267.281 21.0703 267.004 21.2812C266.727 21.4922 266.588 21.7812 266.588 22.1484C266.588 22.4688 266.684 22.7031 266.875 22.8516C267.066 22.9961 267.318 23.0684 267.631 23.0684C268.107 23.0684 268.502 22.9336 268.814 22.6641C269.131 22.3906 269.289 21.9902 269.289 21.4629V20.9004ZM273.959 14.8828V19.2891C273.959 19.4883 273.951 19.707 273.936 19.9453C273.92 20.1797 273.904 20.4004 273.889 20.6074H273.918C274.02 20.4707 274.141 20.3105 274.281 20.127C274.426 19.9434 274.562 19.7832 274.691 19.6465L276.672 17.5137H278.254L275.658 20.3027L278.424 24H276.807L274.732 21.1523L273.959 21.8145V24H272.582V14.8828H273.959ZM282.045 17.3906C282.623 17.3906 283.119 17.5098 283.533 17.748C283.947 17.9863 284.266 18.3242 284.488 18.7617C284.711 19.1992 284.822 19.7227 284.822 20.332V21.0703H280.492C280.508 21.6992 280.676 22.1836 280.996 22.5234C281.32 22.8633 281.773 23.0332 282.355 23.0332C282.77 23.0332 283.141 22.9941 283.469 22.916C283.801 22.834 284.143 22.7148 284.494 22.5586V23.6777C284.17 23.8301 283.84 23.9414 283.504 24.0117C283.168 24.082 282.766 24.1172 282.297 24.1172C281.66 24.1172 281.1 23.9941 280.615 23.748C280.135 23.498 279.758 23.127 279.484 22.6348C279.215 22.1426 279.08 21.5312 279.08 20.8008C279.08 20.0742 279.203 19.457 279.449 18.9492C279.695 18.4414 280.041 18.0547 280.486 17.7891C280.932 17.5234 281.451 17.3906 282.045 17.3906ZM282.045 18.4277C281.611 18.4277 281.26 18.5684 280.99 18.8496C280.725 19.1309 280.568 19.543 280.521 20.0859H283.475C283.471 19.7617 283.416 19.4746 283.311 19.2246C283.209 18.9746 283.053 18.7793 282.842 18.6387C282.635 18.498 282.369 18.4277 282.045 18.4277ZM290.734 22.1484C290.734 22.5742 290.631 22.9336 290.424 23.2266C290.217 23.5195 289.914 23.7422 289.516 23.8945C289.121 24.043 288.637 24.1172 288.062 24.1172C287.609 24.1172 287.219 24.084 286.891 24.0176C286.566 23.9551 286.26 23.8574 285.971 23.7246V22.5352C286.279 22.6797 286.625 22.8047 287.008 22.9102C287.395 23.0156 287.76 23.0684 288.104 23.0684C288.557 23.0684 288.883 22.998 289.082 22.8574C289.281 22.7129 289.381 22.5215 289.381 22.2832C289.381 22.1426 289.34 22.0176 289.258 21.9082C289.18 21.7949 289.031 21.6797 288.812 21.5625C288.598 21.4414 288.281 21.2969 287.863 21.1289C287.453 20.9648 287.107 20.8008 286.826 20.6367C286.545 20.4727 286.332 20.2754 286.188 20.0449C286.043 19.8105 285.971 19.5117 285.971 19.1484C285.971 18.5742 286.197 18.1387 286.65 17.8418C287.107 17.541 287.711 17.3906 288.461 17.3906C288.859 17.3906 289.234 17.4316 289.586 17.5137C289.941 17.5918 290.289 17.707 290.629 17.8594L290.195 18.8965C289.902 18.7676 289.607 18.6621 289.311 18.5801C289.018 18.4941 288.719 18.4512 288.414 18.4512C288.059 18.4512 287.787 18.5059 287.6 18.6152C287.416 18.7246 287.324 18.8809 287.324 19.084C287.324 19.2363 287.369 19.3652 287.459 19.4707C287.549 19.5762 287.703 19.6816 287.922 19.7871C288.145 19.8926 288.453 20.0234 288.848 20.1797C289.234 20.3281 289.568 20.4844 289.85 20.6484C290.135 20.8086 290.354 21.0059 290.506 21.2402C290.658 21.4746 290.734 21.7773 290.734 22.1484Z" fill="#616161"/>
<path d="M198.168 19.1367C198.168 19.5768 198.113 19.9779 198.004 20.3398C197.895 20.6992 197.728 21.0091 197.504 21.2695C197.283 21.5299 197.001 21.7305 196.66 21.8711C196.319 22.0091 195.915 22.0781 195.449 22.0781C194.983 22.0781 194.579 22.0091 194.238 21.8711C193.897 21.7305 193.615 21.5299 193.391 21.2695C193.169 21.0091 193.004 20.6979 192.895 20.3359C192.785 19.974 192.73 19.5716 192.73 19.1289C192.73 18.5378 192.827 18.0234 193.02 17.5859C193.215 17.1458 193.514 16.8047 193.918 16.5625C194.322 16.3203 194.835 16.1992 195.457 16.1992C196.077 16.1992 196.586 16.3203 196.984 16.5625C197.385 16.8047 197.682 17.1458 197.875 17.5859C198.07 18.026 198.168 18.543 198.168 19.1367ZM194 19.1367C194 19.5352 194.049 19.8789 194.148 20.168C194.25 20.4544 194.408 20.6758 194.621 20.832C194.835 20.9857 195.111 21.0625 195.449 21.0625C195.793 21.0625 196.072 20.9857 196.285 20.832C196.499 20.6758 196.654 20.4544 196.75 20.168C196.849 19.8789 196.898 19.5352 196.898 19.1367C196.898 18.5378 196.786 18.0664 196.562 17.7227C196.339 17.3789 195.97 17.207 195.457 17.207C195.116 17.207 194.837 17.2852 194.621 17.4414C194.408 17.5951 194.25 17.8164 194.148 18.1055C194.049 18.3919 194 18.7357 194 19.1367ZM201.777 17.2148C201.546 17.2148 201.34 17.2604 201.16 17.3516C200.983 17.4401 200.833 17.569 200.711 17.7383C200.591 17.9076 200.5 18.112 200.438 18.3516C200.375 18.5911 200.344 18.8607 200.344 19.1602C200.344 19.5638 200.393 19.9089 200.492 20.1953C200.594 20.4792 200.75 20.6966 200.961 20.8477C201.172 20.9961 201.444 21.0703 201.777 21.0703C202.009 21.0703 202.241 21.0443 202.473 20.9922C202.707 20.9401 202.961 20.8659 203.234 20.7695V21.7852C202.982 21.8893 202.733 21.9635 202.488 22.0078C202.243 22.0547 201.969 22.0781 201.664 22.0781C201.076 22.0781 200.591 21.957 200.211 21.7148C199.833 21.4701 199.553 21.1289 199.371 20.6914C199.189 20.2513 199.098 19.7383 199.098 19.1523C199.098 18.7201 199.156 18.3242 199.273 17.9648C199.391 17.6055 199.562 17.2943 199.789 17.0312C200.016 16.7682 200.296 16.5651 200.629 16.4219C200.962 16.2786 201.345 16.207 201.777 16.207C202.061 16.207 202.345 16.2435 202.629 16.3164C202.915 16.3867 203.189 16.4844 203.449 16.6094L203.059 17.5938C202.845 17.4922 202.63 17.4036 202.414 17.3281C202.198 17.2526 201.986 17.2148 201.777 17.2148Z" fill="#A2A49B"/>
<rect x="362" y="2" width="175" height="34" rx="17" fill="#4B70F1" fill-opacity="0.1"/>
<g opacity="0.8">
<path d="M522.335 13.4351C522.026 13.1268 521.526 13.1268 521.218 13.4351L517.385 17.2684L513.551 13.4351C513.243 13.1268 512.743 13.1268 512.435 13.4351C512.127 13.7434 512.127 14.2433 512.435 14.5516L516.268 18.3849L512.435 22.2181C512.127 22.5264 512.127 23.0263 512.435 23.3346C512.743 23.6429 513.243 23.6429 513.552 23.3346L517.385 19.5013L521.218 23.3346C521.526 23.6429 522.026 23.6429 522.334 23.3346C522.643 23.0263 522.643 22.5264 522.334 22.2181L518.501 18.3849L522.335 14.5516C522.643 14.2433 522.643 13.7434 522.335 13.4351Z" fill="#5D5D5A"/>
</g>
<circle cx="379.5" cy="18.5" r="12.5" fill="#D9D9D9"/>
<path d="M406.73 19.7051C406.73 20.3652 406.646 20.9668 406.479 21.5098C406.314 22.0488 406.066 22.5137 405.734 22.9043C405.402 23.291 404.986 23.5898 404.486 23.8008C403.986 24.0117 403.4 24.1172 402.729 24.1172C402.045 24.1172 401.451 24.0117 400.947 23.8008C400.447 23.5898 400.031 23.2891 399.699 22.8984C399.371 22.5078 399.125 22.041 398.961 21.498C398.797 20.9551 398.715 20.3535 398.715 19.6934C398.715 18.8105 398.859 18.041 399.148 17.3848C399.441 16.7246 399.885 16.2129 400.479 15.8496C401.076 15.4824 401.83 15.2988 402.74 15.2988C403.631 15.2988 404.371 15.4805 404.961 15.8438C405.551 16.207 405.992 16.7188 406.285 17.3789C406.582 18.0352 406.73 18.8105 406.73 19.7051ZM400.191 19.7051C400.191 20.3652 400.281 20.9375 400.461 21.4219C400.641 21.9023 400.916 22.2734 401.287 22.5352C401.662 22.793 402.143 22.9219 402.729 22.9219C403.318 22.9219 403.799 22.793 404.17 22.5352C404.541 22.2734 404.814 21.9023 404.99 21.4219C405.166 20.9375 405.254 20.3652 405.254 19.7051C405.254 18.7012 405.053 17.916 404.65 17.3496C404.252 16.7793 403.615 16.4941 402.74 16.4941C402.154 16.4941 401.672 16.623 401.293 16.8809C400.918 17.1387 400.641 17.5078 400.461 17.9883C400.281 18.4648 400.191 19.0371 400.191 19.7051ZM411.043 24.1172C410.43 24.1172 409.898 23.998 409.449 23.7598C409 23.5215 408.654 23.1562 408.412 22.6641C408.17 22.1719 408.049 21.5469 408.049 20.7891C408.049 20 408.182 19.3555 408.447 18.8555C408.713 18.3555 409.08 17.9863 409.549 17.748C410.021 17.5098 410.562 17.3906 411.172 17.3906C411.559 17.3906 411.908 17.4297 412.221 17.5078C412.537 17.582 412.805 17.6738 413.023 17.7832L412.613 18.8848C412.375 18.7871 412.131 18.7051 411.881 18.6387C411.631 18.5723 411.391 18.5391 411.16 18.5391C410.781 18.5391 410.465 18.623 410.211 18.791C409.961 18.959 409.773 19.209 409.648 19.541C409.527 19.873 409.467 20.2852 409.467 20.7773C409.467 21.2539 409.529 21.6562 409.654 21.9844C409.779 22.3086 409.965 22.5547 410.211 22.7227C410.457 22.8867 410.76 22.9688 411.119 22.9688C411.475 22.9688 411.793 22.9258 412.074 22.8398C412.355 22.7539 412.621 22.6426 412.871 22.5059V23.7012C412.625 23.8418 412.361 23.9453 412.08 24.0117C411.799 24.082 411.453 24.1172 411.043 24.1172ZM416.979 17.3906C417.557 17.3906 418.053 17.5098 418.467 17.748C418.881 17.9863 419.199 18.3242 419.422 18.7617C419.645 19.1992 419.756 19.7227 419.756 20.332V21.0703H415.426C415.441 21.6992 415.609 22.1836 415.93 22.5234C416.254 22.8633 416.707 23.0332 417.289 23.0332C417.703 23.0332 418.074 22.9941 418.402 22.916C418.734 22.834 419.076 22.7148 419.428 22.5586V23.6777C419.104 23.8301 418.773 23.9414 418.438 24.0117C418.102 24.082 417.699 24.1172 417.23 24.1172C416.594 24.1172 416.033 23.9941 415.549 23.748C415.068 23.498 414.691 23.127 414.418 22.6348C414.148 22.1426 414.014 21.5312 414.014 20.8008C414.014 20.0742 414.137 19.457 414.383 18.9492C414.629 18.4414 414.975 18.0547 415.42 17.7891C415.865 17.5234 416.385 17.3906 416.979 17.3906ZM416.979 18.4277C416.545 18.4277 416.193 18.5684 415.924 18.8496C415.658 19.1309 415.502 19.543 415.455 20.0859H418.408C418.404 19.7617 418.35 19.4746 418.244 19.2246C418.143 18.9746 417.986 18.7793 417.775 18.6387C417.568 18.498 417.303 18.4277 416.979 18.4277ZM423.852 17.3906C424.672 17.3906 425.291 17.5723 425.709 17.9355C426.131 18.2988 426.342 18.8652 426.342 19.6348V24H425.363L425.1 23.0801H425.053C424.869 23.3145 424.68 23.5078 424.484 23.6602C424.289 23.8125 424.062 23.9258 423.805 24C423.551 24.0781 423.24 24.1172 422.873 24.1172C422.486 24.1172 422.141 24.0469 421.836 23.9062C421.531 23.7617 421.291 23.543 421.115 23.25C420.939 22.957 420.852 22.5859 420.852 22.1367C420.852 21.4688 421.1 20.9668 421.596 20.6309C422.096 20.2949 422.85 20.1094 423.857 20.0742L424.982 20.0332V19.6934C424.982 19.2441 424.877 18.9238 424.666 18.7324C424.459 18.541 424.166 18.4453 423.787 18.4453C423.463 18.4453 423.148 18.4922 422.844 18.5859C422.539 18.6797 422.242 18.7949 421.953 18.9316L421.508 17.959C421.824 17.791 422.184 17.6543 422.586 17.5488C422.992 17.4434 423.414 17.3906 423.852 17.3906ZM424.977 20.9004L424.139 20.9297C423.451 20.9531 422.969 21.0703 422.691 21.2812C422.414 21.4922 422.275 21.7812 422.275 22.1484C422.275 22.4688 422.371 22.7031 422.562 22.8516C422.754 22.9961 423.006 23.0684 423.318 23.0684C423.795 23.0684 424.189 22.9336 424.502 22.6641C424.818 22.3906 424.977 21.9902 424.977 21.4629V20.9004ZM431.65 17.3906C432.381 17.3906 432.949 17.5801 433.355 17.959C433.766 18.334 433.971 18.9375 433.971 19.7695V24H432.594V20.0273C432.594 19.5234 432.49 19.1465 432.283 18.8965C432.076 18.6426 431.756 18.5156 431.322 18.5156C430.693 18.5156 430.256 18.709 430.01 19.0957C429.768 19.4824 429.646 20.043 429.646 20.7773V24H428.27V17.5137H429.342L429.535 18.3926H429.611C429.752 18.166 429.926 17.9805 430.133 17.8359C430.344 17.6875 430.578 17.5762 430.836 17.502C431.098 17.4277 431.369 17.3906 431.65 17.3906ZM442.807 16.5059C442.396 16.5059 442.029 16.5801 441.705 16.7285C441.385 16.877 441.113 17.0918 440.891 17.373C440.668 17.6504 440.498 17.9883 440.381 18.3867C440.264 18.7812 440.205 19.2266 440.205 19.7227C440.205 20.3867 440.299 20.959 440.486 21.4395C440.674 21.916 440.959 22.2832 441.342 22.541C441.725 22.7949 442.209 22.9219 442.795 22.9219C443.158 22.9219 443.512 22.8867 443.855 22.8164C444.199 22.7461 444.555 22.6504 444.922 22.5293V23.7246C444.574 23.8613 444.223 23.9609 443.867 24.0234C443.512 24.0859 443.102 24.1172 442.637 24.1172C441.762 24.1172 441.035 23.9355 440.457 23.5723C439.883 23.209 439.453 22.6973 439.168 22.0371C438.887 21.377 438.746 20.6035 438.746 19.7168C438.746 19.0684 438.836 18.4746 439.016 17.9355C439.195 17.3965 439.457 16.9316 439.801 16.541C440.145 16.1465 440.568 15.8438 441.072 15.6328C441.58 15.418 442.16 15.3105 442.812 15.3105C443.242 15.3105 443.664 15.3594 444.078 15.457C444.496 15.5508 444.883 15.6855 445.238 15.8613L444.746 17.0215C444.449 16.8809 444.139 16.7598 443.814 16.6582C443.49 16.5566 443.154 16.5059 442.807 16.5059ZM449.164 17.3906C449.984 17.3906 450.604 17.5723 451.021 17.9355C451.443 18.2988 451.654 18.8652 451.654 19.6348V24H450.676L450.412 23.0801H450.365C450.182 23.3145 449.992 23.5078 449.797 23.6602C449.602 23.8125 449.375 23.9258 449.117 24C448.863 24.0781 448.553 24.1172 448.186 24.1172C447.799 24.1172 447.453 24.0469 447.148 23.9062C446.844 23.7617 446.604 23.543 446.428 23.25C446.252 22.957 446.164 22.5859 446.164 22.1367C446.164 21.4688 446.412 20.9668 446.908 20.6309C447.408 20.2949 448.162 20.1094 449.17 20.0742L450.295 20.0332V19.6934C450.295 19.2441 450.189 18.9238 449.979 18.7324C449.771 18.541 449.479 18.4453 449.1 18.4453C448.775 18.4453 448.461 18.4922 448.156 18.5859C447.852 18.6797 447.555 18.7949 447.266 18.9316L446.82 17.959C447.137 17.791 447.496 17.6543 447.898 17.5488C448.305 17.4434 448.727 17.3906 449.164 17.3906ZM450.289 20.9004L449.451 20.9297C448.764 20.9531 448.281 21.0703 448.004 21.2812C447.727 21.4922 447.588 21.7812 447.588 22.1484C447.588 22.4688 447.684 22.7031 447.875 22.8516C448.066 22.9961 448.318 23.0684 448.631 23.0684C449.107 23.0684 449.502 22.9336 449.814 22.6641C450.131 22.3906 450.289 21.9902 450.289 21.4629V20.9004ZM454.959 14.8828V19.2891C454.959 19.4883 454.951 19.707 454.936 19.9453C454.92 20.1797 454.904 20.4004 454.889 20.6074H454.918C455.02 20.4707 455.141 20.3105 455.281 20.127C455.426 19.9434 455.562 19.7832 455.691 19.6465L457.672 17.5137H459.254L456.658 20.3027L459.424 24H457.807L455.732 21.1523L454.959 21.8145V24H453.582V14.8828H454.959ZM463.045 17.3906C463.623 17.3906 464.119 17.5098 464.533 17.748C464.947 17.9863 465.266 18.3242 465.488 18.7617C465.711 19.1992 465.822 19.7227 465.822 20.332V21.0703H461.492C461.508 21.6992 461.676 22.1836 461.996 22.5234C462.32 22.8633 462.773 23.0332 463.355 23.0332C463.77 23.0332 464.141 22.9941 464.469 22.916C464.801 22.834 465.143 22.7148 465.494 22.5586V23.6777C465.17 23.8301 464.84 23.9414 464.504 24.0117C464.168 24.082 463.766 24.1172 463.297 24.1172C462.66 24.1172 462.1 23.9941 461.615 23.748C461.135 23.498 460.758 23.127 460.484 22.6348C460.215 22.1426 460.08 21.5312 460.08 20.8008C460.08 20.0742 460.203 19.457 460.449 18.9492C460.695 18.4414 461.041 18.0547 461.486 17.7891C461.932 17.5234 462.451 17.3906 463.045 17.3906ZM463.045 18.4277C462.611 18.4277 462.26 18.5684 461.99 18.8496C461.725 19.1309 461.568 19.543 461.521 20.0859H464.475C464.471 19.7617 464.416 19.4746 464.311 19.2246C464.209 18.9746 464.053 18.7793 463.842 18.6387C463.635 18.498 463.369 18.4277 463.045 18.4277ZM471.734 22.1484C471.734 22.5742 471.631 22.9336 471.424 23.2266C471.217 23.5195 470.914 23.7422 470.516 23.8945C470.121 24.043 469.637 24.1172 469.062 24.1172C468.609 24.1172 468.219 24.084 467.891 24.0176C467.566 23.9551 467.26 23.8574 466.971 23.7246V22.5352C467.279 22.6797 467.625 22.8047 468.008 22.9102C468.395 23.0156 468.76 23.0684 469.104 23.0684C469.557 23.0684 469.883 22.998 470.082 22.8574C470.281 22.7129 470.381 22.5215 470.381 22.2832C470.381 22.1426 470.34 22.0176 470.258 21.9082C470.18 21.7949 470.031 21.6797 469.812 21.5625C469.598 21.4414 469.281 21.2969 468.863 21.1289C468.453 20.9648 468.107 20.8008 467.826 20.6367C467.545 20.4727 467.332 20.2754 467.188 20.0449C467.043 19.8105 466.971 19.5117 466.971 19.1484C466.971 18.5742 467.197 18.1387 467.65 17.8418C468.107 17.541 468.711 17.3906 469.461 17.3906C469.859 17.3906 470.234 17.4316 470.586 17.5137C470.941 17.5918 471.289 17.707 471.629 17.8594L471.195 18.8965C470.902 18.7676 470.607 18.6621 470.311 18.5801C470.018 18.4941 469.719 18.4512 469.414 18.4512C469.059 18.4512 468.787 18.5059 468.6 18.6152C468.416 18.7246 468.324 18.8809 468.324 19.084C468.324 19.2363 468.369 19.3652 468.459 19.4707C468.549 19.5762 468.703 19.6816 468.922 19.7871C469.145 19.8926 469.453 20.0234 469.848 20.1797C470.234 20.3281 470.568 20.4844 470.85 20.6484C471.135 20.8086 471.354 21.0059 471.506 21.2402C471.658 21.4746 471.734 21.7773 471.734 22.1484Z" fill="#616161"/>
<path d="M379.168 19.1367C379.168 19.5768 379.113 19.9779 379.004 20.3398C378.895 20.6992 378.728 21.0091 378.504 21.2695C378.283 21.5299 378.001 21.7305 377.66 21.8711C377.319 22.0091 376.915 22.0781 376.449 22.0781C375.983 22.0781 375.579 22.0091 375.238 21.8711C374.897 21.7305 374.615 21.5299 374.391 21.2695C374.169 21.0091 374.004 20.6979 373.895 20.3359C373.785 19.974 373.73 19.5716 373.73 19.1289C373.73 18.5378 373.827 18.0234 374.02 17.5859C374.215 17.1458 374.514 16.8047 374.918 16.5625C375.322 16.3203 375.835 16.1992 376.457 16.1992C377.077 16.1992 377.586 16.3203 377.984 16.5625C378.385 16.8047 378.682 17.1458 378.875 17.5859C379.07 18.026 379.168 18.543 379.168 19.1367ZM375 19.1367C375 19.5352 375.049 19.8789 375.148 20.168C375.25 20.4544 375.408 20.6758 375.621 20.832C375.835 20.9857 376.111 21.0625 376.449 21.0625C376.793 21.0625 377.072 20.9857 377.285 20.832C377.499 20.6758 377.654 20.4544 377.75 20.168C377.849 19.8789 377.898 19.5352 377.898 19.1367C377.898 18.5378 377.786 18.0664 377.562 17.7227C377.339 17.3789 376.97 17.207 376.457 17.207C376.116 17.207 375.837 17.2852 375.621 17.4414C375.408 17.5951 375.25 17.8164 375.148 18.1055C375.049 18.3919 375 18.7357 375 19.1367ZM382.777 17.2148C382.546 17.2148 382.34 17.2604 382.16 17.3516C381.983 17.4401 381.833 17.569 381.711 17.7383C381.591 17.9076 381.5 18.112 381.438 18.3516C381.375 18.5911 381.344 18.8607 381.344 19.1602C381.344 19.5638 381.393 19.9089 381.492 20.1953C381.594 20.4792 381.75 20.6966 381.961 20.8477C382.172 20.9961 382.444 21.0703 382.777 21.0703C383.009 21.0703 383.241 21.0443 383.473 20.9922C383.707 20.9401 383.961 20.8659 384.234 20.7695V21.7852C383.982 21.8893 383.733 21.9635 383.488 22.0078C383.243 22.0547 382.969 22.0781 382.664 22.0781C382.076 22.0781 381.591 21.957 381.211 21.7148C380.833 21.4701 380.553 21.1289 380.371 20.6914C380.189 20.2513 380.098 19.7383 380.098 19.1523C380.098 18.7201 380.156 18.3242 380.273 17.9648C380.391 17.6055 380.562 17.2943 380.789 17.0312C381.016 16.7682 381.296 16.5651 381.629 16.4219C381.962 16.2786 382.345 16.207 382.777 16.207C383.061 16.207 383.345 16.2435 383.629 16.3164C383.915 16.3867 384.189 16.4844 384.449 16.6094L384.059 17.5938C383.845 17.4922 383.63 17.4036 383.414 17.3281C383.198 17.2526 382.986 17.2148 382.777 17.2148Z" fill="#A2A49B"/>
</svg>
