<svg width="27" height="22" viewBox="0 0 27 22" fill="none" xmlns="http://www.w3.org/2000/svg">
<path d="M18.7778 21.0002V18.7779C18.7778 17.5992 18.3095 16.4687 17.476 15.6352C16.6425 14.8017 15.5121 14.3335 14.3333 14.3335H5.44444C4.2657 14.3335 3.13524 14.8017 2.30175 15.6352C1.46825 16.4687 1 17.5992 1 18.7779V21.0002" stroke="#54564E" stroke-width="1.3" stroke-linecap="round" stroke-linejoin="round"/>
<path d="M9.88878 9.88889C12.3434 9.88889 14.3332 7.89904 14.3332 5.44444C14.3332 2.98985 12.3434 1 9.88878 1C7.43418 1 5.44434 2.98985 5.44434 5.44444C5.44434 7.89904 7.43418 9.88889 9.88878 9.88889Z" stroke="#54564E" stroke-width="1.3" stroke-linecap="round" stroke-linejoin="round"/>
<path d="M25.4447 20.9998V18.7775C25.4439 17.7928 25.1162 16.8362 24.5128 16.0579C23.9095 15.2796 23.0648 14.7237 22.1113 14.4775" stroke="#54564E" stroke-width="1.3" stroke-linecap="round" stroke-linejoin="round"/>
<path d="M17.6665 1.14453C18.6225 1.38931 19.4699 1.94531 20.075 2.72488C20.6801 3.50444 21.0086 4.46323 21.0086 5.45009C21.0086 6.43694 20.6801 7.39573 20.075 8.1753C19.4699 8.95486 18.6225 9.51086 17.6665 9.75564" stroke="#54564E" stroke-width="1.3" stroke-linecap="round" stroke-linejoin="round"/>
</svg>
