<svg width="25" height="26" viewBox="0 0 25 26" fill="none" xmlns="http://www.w3.org/2000/svg">
<mask id="path-1-outside-1_2110_12268" maskUnits="userSpaceOnUse" x="7.35547" y="18.7114" width="10" height="7" fill="black">
<rect fill="white" x="7.35547" y="18.7114" width="10" height="7"/>
<path d="M15.3238 20.6956C15.3238 21.0875 15.2466 21.4755 15.0967 21.8376C14.9467 22.1996 14.7269 22.5286 14.4498 22.8057C14.1727 23.0828 13.8437 23.3026 13.4816 23.4526C13.1196 23.6026 12.7315 23.6798 12.3396 23.6798C11.9478 23.6798 11.5597 23.6026 11.1976 23.4526C10.8356 23.3026 10.5066 23.0828 10.2295 22.8057C9.95241 22.5286 9.73259 22.1996 9.58263 21.8376C9.43266 21.4755 9.35547 21.0875 9.35547 20.6956L12.3396 20.6956H15.3238Z"/>
</mask>
<path d="M15.3238 20.6956C15.3238 21.0875 15.2466 21.4755 15.0967 21.8376C14.9467 22.1996 14.7269 22.5286 14.4498 22.8057C14.1727 23.0828 13.8437 23.3026 13.4816 23.4526C13.1196 23.6026 12.7315 23.6798 12.3396 23.6798C11.9478 23.6798 11.5597 23.6026 11.1976 23.4526C10.8356 23.3026 10.5066 23.0828 10.2295 22.8057C9.95241 22.5286 9.73259 22.1996 9.58263 21.8376C9.43266 21.4755 9.35547 21.0875 9.35547 20.6956L12.3396 20.6956H15.3238Z" stroke="#494B43" stroke-width="2.8" mask="url(#path-1-outside-1_2110_12268)"/>
<path d="M23.6797 21.2924H1V20.0377C1 19.4854 1.44771 19.0377 2 19.0377H2.13399V11.1811C2.13399 5.55789 6.70395 1 12.3399 1C17.9758 1 22.5457 5.55789 22.5457 11.1811V19.0377H22.6797C23.232 19.0377 23.6797 19.4854 23.6797 20.0377V21.2924ZM4.40196 19.0377H20.2777V11.1811C20.2777 6.80362 16.7238 3.25471 12.3399 3.25471C7.95586 3.25471 4.40196 6.80362 4.40196 11.1811V19.0377Z" fill="#494B43" stroke="white" stroke-width="0.7"/>
</svg>
