<svg width="20" height="20" viewBox="0 0 20 20" fill="none" xmlns="http://www.w3.org/2000/svg">
<path fill-rule="evenodd" clip-rule="evenodd" d="M6.507 5.27151L9.15865 7.92316L15.7878 1.29404L14.9039 0.410156L9.15865 6.15539L7.39088 4.38763L6.507 5.27151ZM4.98047 17.8958C5.27214 18.1875 5.6263 18.3333 6.04297 18.3333C6.45964 18.3333 6.8138 18.1875 7.10547 17.8958C7.39714 17.6042 7.54297 17.25 7.54297 16.8333C7.54297 16.4167 7.39714 16.0625 7.10547 15.7708C6.8138 15.4792 6.45964 15.3333 6.04297 15.3333C5.6263 15.3333 5.27214 15.4792 4.98047 15.7708C4.6888 16.0625 4.54297 16.4167 4.54297 16.8333C4.54297 17.25 4.6888 17.6042 4.98047 17.8958ZM13.3971 17.8958C13.6888 18.1875 14.043 18.3333 14.4596 18.3333C14.8763 18.3333 15.2305 18.1875 15.5221 17.8958C15.8138 17.6042 15.9596 17.25 15.9596 16.8333C15.9596 16.4167 15.8138 16.0625 15.5221 15.7708C15.2305 15.4792 14.8763 15.3333 14.4596 15.3333C14.043 15.3333 13.6888 15.4792 13.3971 15.7708C13.1055 16.0625 12.9596 16.4167 12.9596 16.8333C12.9596 17.25 13.1055 17.6042 13.3971 17.8958ZM4.76172 13.3125C5.03255 13.7847 5.45964 14.0208 6.04297 14.0208H15.9596V12.7708H5.66797L6.95964 10.5H13.2096C13.5013 10.5 13.7548 10.4375 13.9701 10.3125C14.1853 10.1875 14.3555 10.0069 14.4805 9.77083L17.668 4L16.5846 3.41667L13.3346 9.25H7.2513L3.70964 1.66667H1.29297V2.91667H2.91797L6.04297 9.5625L4.77214 11.875C4.49436 12.3611 4.49089 12.8403 4.76172 13.3125Z" fill="#098CD1"/>
</svg>
