<svg width="14" height="14" viewBox="0 0 14 14" fill="none" xmlns="http://www.w3.org/2000/svg">
<path d="M7 0C6.56397 0 6.21053 0.353463 6.21053 0.789474V6.21055H0.789474C0.353463 6.21055 0 6.56399 0 7.00002C0 7.43605 0.353463 7.78949 0.789474 7.78949H6.21053V13.2105C6.21053 13.6465 6.56397 14 7 14C7.43603 14 7.78947 13.6465 7.78947 13.2105V7.78949H13.2105C13.6465 7.78949 14 7.43605 14 7.00002C14 6.56399 13.6465 6.21055 13.2105 6.21055H7.78947V0.789474C7.78947 0.353463 7.43603 0 7 0Z" fill="white"/>
</svg>
