<svg width="44" height="48" viewBox="0 0 44 48" fill="none" xmlns="http://www.w3.org/2000/svg">
<mask id="path-1-outside-1_2069_17516" maskUnits="userSpaceOnUse" x="0" y="0" width="44" height="48" fill="black">
<rect fill="white" width="44" height="48"/>
<path d="M12.3607 5.95774C20.3944 8.56806 27.3956 13.6547 32.3607 20.4886C37.3258 27.3225 40 35.5529 40 44L19.2 44C19.2 39.9454 17.9164 35.9948 15.5331 32.7145C13.1499 29.4343 9.78932 26.9927 5.93313 25.7397L12.3607 5.95774Z"/>
</mask>
<path d="M12.3607 5.95774C20.3944 8.56806 27.3956 13.6547 32.3607 20.4886C37.3258 27.3225 40 35.5529 40 44L19.2 44C19.2 39.9454 17.9164 35.9948 15.5331 32.7145C13.1499 29.4343 9.78932 26.9927 5.93313 25.7397L12.3607 5.95774Z" fill="#0F61DD"/>
<path d="M12.3607 5.95774C20.3944 8.56806 27.3956 13.6547 32.3607 20.4886C37.3258 27.3225 40 35.5529 40 44L19.2 44C19.2 39.9454 17.9164 35.9948 15.5331 32.7145C13.1499 29.4343 9.78932 26.9927 5.93313 25.7397L12.3607 5.95774Z" stroke="white" stroke-width="8" mask="url(#path-1-outside-1_2069_17516)"/>
</svg>
