<svg width="24" height="24" viewBox="0 0 24 24" fill="none" xmlns="http://www.w3.org/2000/svg">
<path d="M22.1363 16.2824C21.4363 17.9377 20.3415 19.3963 18.9476 20.5308C17.5537 21.6652 15.9031 22.441 14.1401 22.7901C12.3772 23.1393 10.5555 23.0513 8.8344 22.5338C7.1133 22.0163 5.54518 21.0851 4.26712 19.8215C2.98906 18.558 2.03998 17.0006 1.50286 15.2855C0.965737 13.5704 0.856928 11.7499 1.18594 9.98304C1.51496 8.21619 2.27178 6.55684 3.39024 5.15006C4.5087 3.74328 5.95475 2.6319 7.60196 1.91309" stroke="#494B43" stroke-width="1.3" stroke-linecap="round" stroke-linejoin="round"/>
<path d="M23.0055 12.0025C23.0055 10.5577 22.7209 9.12693 22.1679 7.79204C21.615 6.45715 20.8046 5.24424 19.7829 4.22257C18.7612 3.20089 17.5483 2.39045 16.2134 1.83752C14.8785 1.28459 13.4478 1 12.0029 1V12.0025H23.0055Z" stroke="#494B43" stroke-width="1.3" stroke-linecap="round" stroke-linejoin="round"/>
</svg>
