<svg width="23" height="25" viewBox="0 0 23 25" fill="none" xmlns="http://www.w3.org/2000/svg">
<path fill-rule="evenodd" clip-rule="evenodd" d="M12.4264 0.412398C11.7195 -0.137467 10.7295 -0.137465 10.0225 0.412398L0.755812 7.61986C0.278927 7.99077 0 8.56107 0 9.16522V21.4481C0 22.2443 0.316271 23.0078 0.879236 23.5708C1.4422 24.1337 2.20575 24.45 3.0019 24.45H19.4471C20.2432 24.45 21.0068 24.1337 21.5698 23.5708C22.1327 23.0078 22.449 22.2443 22.449 21.4481V9.16522C22.449 8.56107 22.1701 7.99077 21.6932 7.61986L12.4264 0.412398ZM10.8238 1.44264C11.0595 1.25935 11.3895 1.25935 11.6251 1.44264L20.8919 8.6501C21.0508 8.77374 21.1438 8.96384 21.1438 9.16522V21.4481C21.1438 21.8981 20.9651 22.3297 20.6469 22.6479C20.3287 22.9661 19.8971 23.1448 19.4471 23.1448H15.4012V13.3557C15.4012 12.2745 14.5247 11.398 13.4435 11.398H9.00589C7.92465 11.398 7.04813 12.2745 7.04813 13.3557V23.1448H3.0019C2.5519 23.1448 2.12033 22.9661 1.80213 22.6479C1.48394 22.3297 1.30517 21.8981 1.30517 21.4481V9.16522C1.30517 8.96384 1.39815 8.77374 1.55711 8.6501L10.8238 1.44264ZM8.3533 23.1448H14.0961V13.3557C14.0961 12.9953 13.8039 12.7031 13.4435 12.7031H9.00589C8.64547 12.7031 8.3533 12.9953 8.3533 13.3557V23.1448Z" fill="#494B43"/>
</svg>
