<svg width="18" height="19" viewBox="0 0 18 19" fill="none" xmlns="http://www.w3.org/2000/svg">
<path d="M9.09169 0.903076C9.83357 0.903028 10.5473 1.18687 11.0866 1.69637C11.6258 2.20587 11.9497 2.9024 11.9917 3.64308L11.9961 3.80752H16.6879C16.8578 3.80757 17.0212 3.87208 17.1453 3.98802C17.2694 4.10395 17.3449 4.26267 17.3564 4.43209C17.368 4.60152 17.3148 4.76902 17.2077 4.90075C17.1005 5.03249 16.9473 5.11863 16.7791 5.14178L16.6879 5.14803H15.9766L14.8327 16.7837C14.7753 17.3638 14.5137 17.9046 14.0945 18.3096C13.6752 18.7146 13.1257 18.9574 12.544 18.9946L12.3867 19H5.79671C5.21355 19 4.6494 18.7926 4.20508 18.4149C3.76076 18.0372 3.46522 17.5138 3.37128 16.9383L3.35072 16.7828L2.20592 5.14803H1.49545C1.33348 5.14803 1.177 5.08937 1.05493 4.98291C0.932866 4.87645 0.853479 4.72939 0.831451 4.56893L0.825195 4.47778C0.825202 4.31581 0.883859 4.15932 0.990317 4.03726C1.09678 3.91519 1.24383 3.8358 1.4043 3.81378L1.49545 3.80752H6.18725C6.18725 3.03721 6.49325 2.29846 7.03794 1.75377C7.58263 1.20908 8.32139 0.903076 9.09169 0.903076ZM14.6298 5.14803H3.55269L4.68498 16.6514C4.71005 16.9081 4.82316 17.1482 5.00511 17.331C5.18707 17.5137 5.42665 17.6279 5.68321 17.6541L5.79671 17.6595H12.3867C12.9229 17.6595 13.3778 17.2797 13.4814 16.764L13.4993 16.6514L14.6289 5.14803H14.6298ZM10.6556 7.60564C10.8176 7.60565 10.9741 7.6643 11.0961 7.77076C11.2182 7.87722 11.2976 8.02428 11.3196 8.18474L11.3259 8.2759V14.5316C11.3258 14.7014 11.2613 14.8649 11.1454 14.989C11.0294 15.1131 10.8707 15.1885 10.7013 15.2001C10.5319 15.2117 10.3644 15.1585 10.2326 15.0514C10.1009 14.9442 10.0148 14.791 9.99162 14.6228L9.98537 14.5316V8.2759C9.98537 8.09813 10.056 7.92765 10.1817 7.80195C10.3074 7.67626 10.4779 7.60564 10.6556 7.60564ZM7.52776 7.60564C7.68973 7.60565 7.84621 7.6643 7.96828 7.77076C8.09035 7.87722 8.16973 8.02428 8.19176 8.18474L8.19802 8.2759V14.5316C8.19796 14.7014 8.13345 14.8649 8.01752 14.989C7.90158 15.1131 7.74287 15.1885 7.57344 15.2001C7.40402 15.2117 7.23652 15.1585 7.10478 15.0514C6.97305 14.9442 6.88691 14.791 6.86376 14.6228L6.8575 14.5316V8.2759C6.8575 8.09813 6.92812 7.92765 7.05382 7.80195C7.17952 7.67626 7.35 7.60564 7.52776 7.60564ZM9.09169 2.24359C8.6992 2.2436 8.32106 2.3912 8.03234 2.65707C7.74361 2.92295 7.56542 3.28767 7.53312 3.67883L7.52776 3.80752H10.6556C10.6556 3.39274 10.4909 2.99495 10.1976 2.70165C9.90427 2.40836 9.50647 2.24359 9.09169 2.24359Z" fill="#5D5D5A"/>
</svg>
