<svg width="18" height="18" viewBox="0 0 18 18" fill="none" xmlns="http://www.w3.org/2000/svg">
<path d="M11.9163 1.38048L11.9165 1.38022C12.8266 0.471697 14.3003 0.471697 15.2103 1.38022L16.4185 2.58405L16.4187 2.58424C17.3271 3.49423 17.3271 4.96807 16.4187 5.87819L16.4186 5.87825L7.23643 15.0613C7.22872 15.0717 7.22078 15.0792 7.21514 15.084C7.20858 15.0916 7.20213 15.0968 7.19795 15.0999L7.19607 15.1019L7.18719 15.1078C7.18563 15.1088 7.18303 15.1109 7.17538 15.1172L11.9163 1.38048ZM11.9163 1.38048L11.1273 2.1738L11.1271 2.17401L2.72941 10.5681H2.71745L2.68777 10.6126C2.68687 10.6139 2.68505 10.6163 2.67861 10.624L2.67782 10.6249C2.6728 10.6309 2.66395 10.6415 2.65626 10.6532L2.63987 10.6782V10.681C2.6395 10.6816 2.63914 10.6822 2.6388 10.6828L2.63829 10.6836C2.63595 10.6875 2.63419 10.6905 2.63233 10.6934C2.62929 10.6973 2.6268 10.7011 2.62482 10.7043L2.61651 10.7129L2.6093 10.7345C2.60812 10.738 2.60691 10.7411 2.60471 10.7466L2.60431 10.7476C2.60306 10.7507 2.60148 10.7546 2.59975 10.7591C2.59573 10.7663 2.59222 10.7745 2.5898 10.7838C2.58967 10.7842 2.58955 10.7847 2.58943 10.7852L0.727945 16.3834L11.9163 1.38048ZM0.85928 16.9417C0.9624 17.0435 1.10156 17.1005 1.24648 17.1L1.24785 17.1C1.30549 17.099 1.36259 17.09 1.41765 17.0734L1.41766 17.0735L1.42045 17.0725L7.01117 15.2073C7.01887 15.2058 7.0277 15.2032 7.03699 15.1987C7.03962 15.1974 7.04208 15.1961 7.04433 15.1948C7.05611 15.1904 7.06772 15.1851 7.079 15.1788C7.08878 15.1749 7.09775 15.1698 7.10576 15.1637C7.10881 15.1618 7.11297 15.1594 7.11924 15.1558L7.12049 15.1551C7.12747 15.151 7.13759 15.1452 7.14692 15.139L0.822546 16.4158L0.727655 16.3843L0.727794 16.3839C0.660902 16.5796 0.711951 16.7964 0.85928 16.9417ZM0.85928 16.9417L0.929522 16.8706L0.859305 16.9418C0.859297 16.9417 0.859288 16.9417 0.85928 16.9417ZM2.66795 10.6408L2.66745 10.6413L2.66795 10.6408ZM15.6485 5.11259L15.6483 5.11283L15.2463 5.51862L12.2847 2.55671L12.6912 2.15039C13.1742 1.66775 13.957 1.66772 14.4402 2.15036C14.4402 2.15037 14.4402 2.15039 14.4402 2.1504L15.6525 3.36276C15.6526 3.36283 15.6526 3.3629 15.6527 3.36297C16.132 3.84838 16.1301 4.62962 15.6485 5.11259ZM3.88451 10.9579L11.5102 3.33152L14.472 6.29351L6.84635 13.9199L3.88451 10.9579ZM3.34957 11.9678L5.83189 14.4503L2.10445 15.6914L3.34957 11.9678Z" fill="#5D5D5A" stroke="#5D5D5A" stroke-width="0.2"/>
</svg>
